<svg width="26" height="26" viewBox="0 0 26 26" fill="none" xmlns="http://www.w3.org/2000/svg">
<path d="M10 17H15L12.5 22L10 17Z" fill="#1D1B84"/>
<path d="M19.103 8L16.7997 16.7353H13.9167L12.5744 11.0683L11.1863 16.7353H8.31858L6 8H8.6084L9.81345 14.2462L11.2473 8H14.0083L15.4574 14.2149L16.6472 8H19.103Z" fill="#1D1B84"/>
<path fill-rule="evenodd" clip-rule="evenodd" d="M0 12.877C0 5.76524 5.76524 0 12.877 0C19.9856 0.00774566 25.7463 5.76845 25.7541 12.877C25.7541 19.9888 19.9888 25.7541 12.877 25.7541C5.76524 25.7541 0 19.9888 0 12.877ZM2.27829 17.2627C4.05368 21.5498 8.23687 24.3451 12.877 24.3451V24.3486C19.2102 24.3428 24.3428 19.2102 24.3486 12.877C24.3501 8.23687 21.556 4.05282 17.2695 2.27613C12.9829 0.49943 8.0482 1.48003 4.76661 4.76061C1.48502 8.04119 0.502912 12.9756 2.27829 17.2627Z" fill="#C8CEE1"/>
</svg>
