<svg width="40" height="39" viewBox="0 0 40 39" fill="none" xmlns="http://www.w3.org/2000/svg">
<path d="M39.0508 0.199396C38.7647 0.0508852 38.443 -0.0168585 38.1207 0.0035575C37.7985 0.0239735 37.488 0.131764 37.2233 0.315168L32.5954 3.51302C30.6758 4.84381 28.3894 5.55597 26.0472 5.55264H10.435C4.68122 5.55264 0 10.1946 0 15.9002V16.4756C0 21.55 3.70254 25.7827 8.56903 26.6576L15.9843 39H23.5406V26.8237H26.0467C28.3889 26.8204 30.6753 27.5325 32.5949 28.8633L37.2218 32.0612C37.4867 32.2445 37.7972 32.3523 38.1196 32.3728C38.442 32.3934 38.7638 32.3259 39.0502 32.1777C39.3366 32.0296 39.5766 31.8064 39.7441 31.5325C39.9115 31.2586 40 30.9444 40 30.6241V1.75277C40.0005 1.43245 39.9123 1.11815 39.7449 0.844198C39.5775 0.570249 39.3373 0.347193 39.0508 0.199396V0.199396ZM2.63959 16.4756V15.9002C2.63959 11.6383 6.13655 8.17012 10.435 8.17012H15.9391V24.2062H10.435C6.13655 24.2062 2.63959 20.738 2.63959 16.4756ZM20.901 36.3825H17.4843L11.7416 26.8237H20.901V36.3825ZM37.3604 28.966L34.1046 26.716C31.7425 25.0782 28.9289 24.2019 26.0467 24.2062H18.5787V8.17012H26.0467C28.9289 8.17442 31.7425 7.29808 34.1046 5.66036L37.3604 3.41034V28.966Z" fill="white"/>
</svg>
