<svg width="15" height="10" viewBox="0 0 15 10" fill="none" xmlns="http://www.w3.org/2000/svg">
    <path d="M6.37572 7.94159C6.81517 7.75124 7.251 7.64474 7.67943 7.63634C8.10305 7.62799 8.51317 7.71654 8.9099 7.91644C9.15403 7.56934 9.56296 7.34074 10.0269 7.34074C10.7752 7.34074 11.383 7.93559 11.383 8.67049C11.383 9.40534 10.7764 10.0002 10.0269 10.0002C9.27734 10.0002 8.67067 9.40534 8.67067 8.67049C8.67067 8.64174 8.67186 8.61184 8.6731 8.58309C8.35691 8.40474 8.02857 8.32699 7.69045 8.33294C7.34131 8.33894 6.97629 8.43709 6.59545 8.60944C6.59669 8.62979 6.59669 8.64894 6.59669 8.66929C6.59669 9.40414 5.98997 9.99904 5.24048 9.99904C4.49219 9.99904 3.88428 9.40414 3.88428 8.66929C3.88428 7.93439 4.49097 7.33954 5.24048 7.33954C5.71655 7.34074 6.13402 7.58009 6.37572 7.94159ZM4.20166 0.550789C4.88037 -0.248734 5.1416 -0.00217482 5.96803 0.216856C7.00071 0.489746 8.00902 0.556774 9.08079 0.255156C9.87791 0.0301412 10.2271 -0.282247 10.9461 0.504109C11.4746 1.08101 11.803 2.0086 11.9995 2.59028C12.2351 3.28568 12.3963 3.99902 12.4927 4.72673H2.77466C3.12134 3.01757 3.5376 1.48196 4.20166 0.550789ZM0.546874 5.20189H14.4531C14.7546 5.20189 15 5.44364 15 5.73809C15 6.03374 14.7534 6.27429 14.4531 6.27429H0.546874C0.246582 6.27429 0 6.03374 0 5.73809C0 5.44364 0.246582 5.20189 0.546874 5.20189Z" fill="white"/>
    </svg>
    