<svg width="29" height="20" viewBox="0 0 29 20" fill="none" xmlns="http://www.w3.org/2000/svg">
<g clip-path="url(#clip0_52_12)">
<path d="M12.3264 15.8827C13.176 15.502 14.0186 15.289 14.8469 15.2722C15.6659 15.2555 16.4588 15.4326 17.2258 15.8324C17.6978 15.1382 18.4884 14.681 19.3853 14.681C20.832 14.681 22.0072 15.8707 22.0072 17.3405C22.0072 18.8102 20.8343 20 19.3853 20C17.9362 20 16.7633 18.8102 16.7633 17.3405C16.7633 17.283 16.7656 17.2232 16.768 17.1657C16.1567 16.809 15.5219 16.6535 14.8682 16.6654C14.1932 16.6774 13.4875 16.8737 12.7512 17.2184C12.7536 17.2591 12.7536 17.2974 12.7536 17.3381C12.7536 18.8078 11.5806 19.9976 10.1316 19.9976C8.6849 19.9976 7.5096 18.8078 7.5096 17.3381C7.5096 15.8683 8.68254 14.6786 10.1316 14.6786C11.052 14.681 11.8591 15.1597 12.3264 15.8827ZM8.12321 1.10109C9.43538 -0.497956 9.94043 -0.00483797 11.5382 0.433223C13.5347 0.979004 15.4841 1.11306 17.5562 0.509824C19.0973 0.0597941 19.7723 -0.564982 21.1624 1.00773C22.1842 2.16153 22.8191 4.01671 23.1991 5.18008C23.6545 6.57087 23.9661 7.99756 24.1525 9.45297H5.36434C6.03459 6.03466 6.83936 2.96344 8.12321 1.10109ZM1.05729 10.4033H27.9427C28.5256 10.4033 29 10.8868 29 11.4757C29 12.067 28.5233 12.5481 27.9427 12.5481H1.05729C0.476725 12.5481 0 12.067 0 11.4757C0 10.8868 0.476725 10.4033 1.05729 10.4033Z" fill="white"/>
</g>
<defs>
<clipPath id="clip0_52_12">
<rect width="29" height="20" fill="white"/>
</clipPath>
</defs>
</svg>
