<svg width="16" height="15" viewBox="0 0 16 15" fill="none" xmlns="http://www.w3.org/2000/svg">
    <path d="M15.6203 0.0766908C15.5059 0.0195712 15.3772 -0.00648404 15.2483 0.00136827C15.1194 0.00922058 14.9952 0.0506785 14.8893 0.121218L13.0382 1.35116C12.2703 1.863 11.3558 2.13691 10.4189 2.13563H4.174C1.87249 2.13563 0 3.921 0 6.11546V6.33677C0 8.28846 1.48102 9.91642 3.42761 10.2529L6.39372 15H9.41624V10.3168H10.4187C11.3556 10.3155 12.2701 10.5894 13.038 11.1013L14.8887 12.3312C14.9947 12.4017 15.1189 12.4432 15.2478 12.4511C15.3768 12.459 15.5055 12.433 15.6201 12.376C15.7346 12.3191 15.8306 12.2332 15.8976 12.1279C15.9646 12.0225 16 11.9017 16 11.7785V0.674142C16.0002 0.550942 15.9649 0.430058 15.898 0.324692C15.831 0.219327 15.7349 0.133536 15.6203 0.0766908ZM1.05584 6.33677V6.11546C1.05584 4.47627 2.45462 3.14235 4.174 3.14235H6.37564V9.31008H4.174C2.45462 9.31008 1.05584 7.97615 1.05584 6.33677ZM8.3604 13.9933H6.99372L4.69664 10.3168H8.3604V13.9933ZM14.9442 11.1408L13.6418 10.2754C12.697 9.64546 11.5716 9.30842 10.4187 9.31008H7.43148V3.14235H10.4187C11.5716 3.14401 12.697 2.80695 13.6418 2.17706L14.9442 1.31167V11.1408Z" fill="white"/>
    </svg>
    