<svg width="565" height="551" viewBox="0 0 565 551" fill="none" xmlns="http://www.w3.org/2000/svg">
<g clip-path="url(#clip0_16_459)">
<path d="M23.5411 98.2913L4.06641 192.299C12.7277 201.091 21.9144 209.402 36.7437 212.537L108.084 225.074L124.834 114.571L23.5411 98.2913Z" fill="#FAFAFA"/>
<path d="M19.4747 92.4911L0 186.499L32.6787 206.736L104.017 219.274L125.076 113.198L19.4747 92.4911Z" fill="#F5F5F5"/>
<path d="M13.2978 181.482L0.000488281 186.499C0.000488281 186.499 4.80449 194.327 11.7992 198.567C18.7952 202.806 25.5432 205.482 32.6792 206.735C32.6792 206.735 17.1018 198.989 13.2978 181.482Z" fill="#E0E0E0"/>
<path d="M8.63342 112.673L57.3867 97.5495L54.2747 87.2841L4.71875 101.691L8.63342 112.673Z" fill="#EBEBEB"/>
<path d="M133.516 138.561L101.913 98.4742L93.4463 105.061L124.668 146.153L133.516 138.561Z" fill="#EBEBEB"/>
<path d="M106.732 144.427C106.696 144.616 88.6897 141.252 66.5217 136.916C44.3444 132.579 26.4017 128.912 26.439 128.724C26.4764 128.536 44.4777 131.899 66.6537 136.235C88.823 140.571 106.77 144.239 106.732 144.427Z" fill="#E0E0E0"/>
<path d="M103.546 158.839C103.51 159.027 85.5045 155.664 63.3352 151.328C41.1578 146.991 23.2165 143.323 23.2525 143.135C23.2898 142.947 41.2912 146.309 63.4685 150.647C85.6365 154.981 103.583 158.651 103.546 158.839Z" fill="#E0E0E0"/>
<path d="M101.485 171.763C101.448 171.951 83.4426 168.589 61.2733 164.253C39.0973 159.915 21.1546 156.249 21.192 156.061C21.2293 155.873 39.2306 159.234 61.4066 163.571C83.576 167.907 101.521 171.575 101.485 171.763Z" fill="#E0E0E0"/>
<path d="M98.9824 184.106C98.9464 184.294 80.9397 180.932 58.7717 176.596C36.5944 172.258 18.6517 168.59 18.689 168.402C18.7264 168.214 36.7277 171.577 58.9037 175.914C81.073 180.25 99.0197 183.918 98.9824 184.106Z" fill="#E0E0E0"/>
<path d="M479.999 55.0673L454.792 116.529C446.42 118.219 437.935 119.431 428.215 115.491L382.441 95.0779L415.593 25.2073L479.999 55.0673Z" fill="#FAFAFA"/>
<path d="M484.575 53.3134L459.369 114.775L432.791 113.739L387.018 93.3241L415.987 24.3268L484.575 53.3134Z" fill="#F5F5F5"/>
<path d="M453.682 106.752L459.369 114.776C459.369 114.776 453.582 117.406 447.93 117.132C442.276 116.857 437.372 115.78 432.792 113.738C432.792 113.738 444.725 115.322 453.682 106.752Z" fill="#E0E0E0"/>
<path d="M482.984 69.0862L460.87 41.5448L466.627 36.8608L489.479 64.3008L482.984 69.0862Z" fill="#EBEBEB"/>
<path d="M401.331 35.6096L434.971 24.8443L437.279 31.899L403.469 43.3883L401.331 35.6096Z" fill="#EBEBEB"/>
<path d="M414.425 49.3394C414.499 49.1634 426.231 53.9594 440.626 60.0501C455.025 66.1448 466.634 71.2261 466.561 71.4021C466.485 71.5794 454.755 66.7834 440.355 60.6901C425.961 54.5981 414.349 49.5154 414.425 49.3394Z" fill="#E0E0E0"/>
<path d="M410.676 58.8394C410.75 58.6621 422.481 63.4581 436.876 69.5501C451.276 75.6448 462.885 80.7261 462.81 80.9021C462.736 81.0794 451.005 76.2834 436.606 70.1901C422.212 64.0981 410.6 59.0154 410.676 58.8394Z" fill="#E0E0E0"/>
<path d="M406.855 67.051C406.931 66.8736 418.662 71.6696 433.057 77.7616C447.457 83.8563 459.065 88.9376 458.991 89.1136C458.917 89.291 447.186 84.495 432.786 78.4016C418.391 72.3096 406.781 67.227 406.855 67.051Z" fill="#E0E0E0"/>
<path d="M403.516 75.0992C403.59 74.9232 415.321 79.7192 429.716 85.8112C444.116 91.9045 455.725 96.9859 455.65 97.1619C455.576 97.3392 443.845 92.5432 429.446 86.4499C415.052 80.3579 403.44 75.2752 403.516 75.0992Z" fill="#E0E0E0"/>
<path d="M452.586 316.979C432.166 300.336 429.349 272.045 432.063 247.003C432.515 242.823 432.383 238.371 434.649 234.841C436.915 231.313 441.753 229.145 445.374 231.189C448.378 232.884 449.465 236.605 450.985 239.728C453.005 243.884 456.213 247.435 460.117 249.844C462.682 251.427 465.922 252.517 468.665 251.26C472.426 249.535 473.223 244.572 473.505 240.401C474.033 232.629 474.561 224.857 475.089 217.087C475.371 212.917 475.674 208.661 477.265 204.801C478.853 200.941 481.991 197.479 486.038 196.663C490.086 195.845 494.819 198.496 495.353 202.637C495.575 204.361 495.099 206.097 495.087 207.836C495.074 209.575 495.738 211.548 497.346 212.152C498.973 212.764 500.729 211.707 502.065 210.579C506.679 206.689 510.001 201.484 513.127 196.296C516.257 191.107 519.314 185.784 523.558 181.483C527.801 177.183 533.47 173.945 539.463 174.049C545.458 174.155 551.545 178.311 552.618 184.283C553.695 190.271 549.826 195.977 545.742 200.457C539.685 207.104 532.674 212.86 525.003 217.485C523.619 218.32 522.121 219.223 521.503 220.729C520.393 223.441 522.821 226.396 525.497 227.512C528.526 228.779 531.922 228.705 535.143 229.329C538.365 229.952 541.779 231.647 542.781 234.809C544.171 239.196 540.278 243.397 536.555 246.061C529.102 251.397 520.742 255.429 511.958 257.928C508.81 258.823 505.51 259.568 502.878 261.539C500.246 263.511 498.475 267.145 499.751 270.192C501.029 273.241 504.793 274.465 508.049 274.108C511.303 273.751 514.307 272.22 517.454 271.292C523.342 269.555 530.71 270.497 534.011 275.72C536.181 279.153 536.058 283.7 534.551 287.488C533.045 291.276 530.323 294.433 527.467 297.32C517.49 307.409 505.094 315.209 491.465 318.832C477.837 322.453 465.433 322.787 452.586 316.979Z" fill="#F5F5F5"/>
<path d="M450.876 335.567C452.523 325.69 455.575 314.106 460.234 301.722C464.868 289.326 471.074 276.159 478.04 262.611C479.792 259.233 481.526 255.891 483.234 252.599C484.947 249.318 486.644 246.063 488.502 242.982C492.19 236.802 496.207 231.143 500.188 225.89C504.17 220.633 508.138 215.79 511.883 211.287C515.638 206.791 519.218 202.669 522.639 199.049C529.464 191.781 535.651 186.582 540.044 183.186C542.238 181.481 543.983 180.213 545.178 179.37C545.751 178.97 546.202 178.657 546.542 178.421C546.851 178.21 547.014 178.107 547.02 178.119C547.03 178.13 546.883 178.254 546.587 178.485C546.259 178.737 545.822 179.07 545.268 179.497C544.104 180.381 542.39 181.685 540.227 183.425C535.898 186.889 529.788 192.133 523.032 199.427C519.644 203.059 516.098 207.194 512.37 211.702C508.65 216.218 504.706 221.069 500.75 226.325C496.794 231.577 492.804 237.225 489.146 243.374C487.303 246.442 485.624 249.67 483.908 252.961C482.203 256.251 480.472 259.59 478.722 262.969C471.763 276.506 465.552 289.631 460.894 301.977C456.215 314.309 453.122 325.829 451.411 335.661" fill="#E0E0E0"/>
<path d="M488.723 242.968C488.671 242.972 488.576 242.33 488.448 241.16C488.313 239.992 488.177 238.298 488.037 236.199C487.756 232.006 487.565 226.2 487.377 219.802C487.192 213.396 486.919 207.612 486.575 203.435C486.408 201.346 486.256 199.655 486.136 198.49C486.023 197.32 485.984 196.671 486.037 196.663C486.089 196.655 486.228 197.29 486.432 198.448C486.643 199.604 486.877 201.291 487.113 203.38C487.599 207.559 487.96 213.364 488.145 219.774C488.313 226.091 488.465 231.804 488.581 236.171C488.644 238.143 488.701 239.804 488.747 241.139C488.781 242.311 488.776 242.964 488.723 242.968Z" fill="#E0E0E0"/>
<path d="M543.052 236.927C543.049 236.98 542.28 237.012 540.896 237.024C539.512 237.045 537.509 237.064 535.035 237.167C530.088 237.332 523.261 237.8 515.753 238.647C508.245 239.507 501.481 240.575 496.613 241.488C494.175 241.927 492.211 242.336 490.852 242.611C489.493 242.891 488.737 243.02 488.723 242.968C488.711 242.916 489.444 242.687 490.785 242.315C492.127 241.951 494.079 241.459 496.511 240.948C501.365 239.893 508.137 238.736 515.671 237.872C523.2 237.025 530.059 236.641 535.024 236.617C537.508 236.584 539.516 236.648 540.903 236.723C542.289 236.803 543.053 236.872 543.052 236.927Z" fill="#E0E0E0"/>
<path d="M460.966 300.785C460.939 300.794 460.831 300.559 460.647 300.103C460.438 299.561 460.182 298.899 459.874 298.097C459.211 296.353 458.317 293.802 457.254 290.635C455.123 284.306 452.457 275.469 449.646 265.677C446.831 255.882 444.25 247.031 442.255 240.666C441.275 237.571 440.47 235.025 439.871 233.133C439.615 232.311 439.405 231.635 439.233 231.078C439.097 230.607 439.035 230.354 439.059 230.343C439.086 230.337 439.194 230.57 439.379 231.026C439.589 231.569 439.843 232.23 440.153 233.031C440.815 234.777 441.709 237.327 442.771 240.494C444.902 246.823 447.569 255.661 450.382 265.457C453.194 275.249 455.775 284.097 457.771 290.465C458.751 293.558 459.555 296.105 460.155 297.995C460.41 298.817 460.619 299.495 460.793 300.05C460.931 300.523 460.991 300.775 460.966 300.785Z" fill="#E0E0E0"/>
<path d="M533.875 283.114C533.88 283.142 533.628 283.222 533.147 283.354C532.576 283.498 531.876 283.677 531.027 283.893C529.071 284.37 526.431 285.016 523.219 285.8C516.625 287.41 507.545 289.74 497.515 292.325C487.481 294.916 478.371 297.162 471.741 298.637C468.428 299.374 465.74 299.945 463.876 300.302C463.013 300.461 462.303 300.59 461.727 300.698C461.233 300.781 460.969 300.81 460.965 300.785C460.96 300.758 461.212 300.677 461.693 300.544C462.263 300.401 462.963 300.222 463.813 300.006C465.769 299.529 468.408 298.885 471.621 298.1C478.213 296.49 487.295 294.161 497.328 291.573C507.359 288.984 516.468 286.737 523.097 285.262C526.411 284.525 529.097 283.954 530.964 283.598C531.827 283.44 532.535 283.308 533.115 283.2C533.608 283.118 533.868 283.088 533.875 283.114Z" fill="#E0E0E0"/>
<path d="M57.4712 401.79C37.0285 371.739 30.5525 334.051 40.9085 299.213C44.9325 285.675 51.1645 272.813 59.5019 261.393C84.3792 227.326 127.21 207.207 169.311 209.811C194.073 211.342 219.453 220.067 243.069 212.47C273.803 202.581 289.538 169.41 301.862 139.567C314.186 109.726 338.331 78.5873 368.363 66.7313C396.306 55.6993 440.514 55.666 459.35 63.0206C531.156 91.058 537.283 185.983 522.582 237.646C507.928 289.137 488.04 323.278 456.983 366.882C413.477 427.967 337.941 464.79 264.061 477.679C193.671 489.959 116.335 467.863 68.2392 415.446C64.3152 411.17 60.7352 406.59 57.4712 401.79Z" fill="#EBEBEB"/>
<path d="M564.159 549.86C564.159 550.054 438.006 550.208 282.424 550.208C126.788 550.208 0.661621 550.054 0.661621 549.86C0.661621 549.668 126.788 549.514 282.424 549.514C438.006 549.514 564.159 549.668 564.159 549.86Z" fill="#263238"/>
<path d="M170.859 41.7809L203.023 139.852C215.804 143.412 228.818 146.244 244.322 141.228L317.546 114.73L274.014 2.73819L170.859 41.7809Z" fill="#E0E0E0"/>
<path d="M163.963 38.5497L196.127 136.62L237.427 137.996L310.65 111.5L273.503 1.32834L163.963 38.5497Z" fill="#363499"/>
<path d="M205.839 124.826L196.127 136.62C196.127 136.62 204.797 141.348 213.589 141.556C222.379 141.764 230.102 140.647 237.426 137.996C237.426 137.996 218.757 139.111 205.839 124.826Z" fill="#363499"/>
<g opacity="0.300003">
<g opacity="0.300003">
<path opacity="0.300003" d="M205.839 124.826C202.887 130.794 199.909 137.786 196.127 136.62C196.127 136.62 204.797 141.348 213.589 141.556C222.379 141.764 230.102 140.647 237.426 137.996C237.426 137.996 218.757 139.111 205.839 124.826Z" fill="black"/>
</g>
</g>
<path d="M164.658 63.1696L202.018 22.9722L193.622 15.0682L155.13 55.0256L164.658 63.1696Z" fill="#E0E0E0"/>
<path d="M294.948 20.4585L244.025 -0.000137329L239.659 10.6732L290.763 32.2732L294.948 20.4585Z" fill="#E0E0E0"/>
<path d="M273.117 40.2639C273.179 40.4452 254.588 46.9372 231.597 54.7612C208.6 62.5879 189.913 68.7839 189.851 68.6026C189.789 68.4212 208.376 61.9306 231.375 54.1039C254.364 46.2799 273.056 40.0826 273.117 40.2639Z" fill="white"/>
<path d="M277.86 55.4057C277.922 55.5871 259.331 62.0791 236.342 69.9031C213.343 77.7297 194.656 83.9257 194.595 83.7444C194.532 83.5631 213.12 77.0724 236.118 69.2457C259.107 61.4217 277.799 55.2244 277.86 55.4057Z" fill="white"/>
<path d="M282.857 68.5594C282.919 68.7408 264.327 75.2328 241.338 83.0568C218.339 90.8834 199.653 97.0794 199.591 96.8981C199.529 96.7168 218.117 90.2261 241.114 82.3994C264.105 74.5754 282.795 68.3781 282.857 68.5594Z" fill="white"/>
<path d="M287.132 81.4065C287.193 81.5878 268.602 88.0798 245.612 95.9038C222.614 103.73 203.926 109.926 203.865 109.745C203.802 109.564 222.39 103.073 245.388 95.2465C268.378 87.4225 287.069 81.2251 287.132 81.4065Z" fill="white"/>
<path d="M336.514 362.308L330.064 422.37C330.064 422.37 317.493 403.364 308.986 411.835C300.88 419.904 286.566 478.832 286.566 478.832C286.566 478.832 286.368 498.048 296.592 503.123C329.321 519.372 365.778 488.734 365.778 488.734L360.61 316.991C347.041 328.43 338.409 344.663 336.514 362.308Z" fill="#363499"/>
<path d="M447.019 320.61L390.334 316.082C389.983 309.465 390.455 283.861 390.455 283.861C390.455 283.861 366.871 280.194 366.579 256.613C366.289 233.033 370.377 178.886 370.377 178.886C397.673 167.156 429.181 171.116 452.723 189.238L456.218 191.928L447.019 320.61Z" fill="#B78876"/>
<path d="M390.416 283.52C390.416 283.52 405.319 284.732 421.159 274.783C421.159 274.783 413.891 291.755 390.362 289.63L390.416 283.52Z" fill="#AA6550"/>
<path d="M453.312 216.353C453.715 216.178 469.515 211.561 469 227.682C468.484 243.802 452.406 239.961 452.394 239.497C452.38 239.034 453.312 216.353 453.312 216.353Z" fill="#B78876"/>
<path d="M457.513 233.547C457.585 233.498 457.788 233.752 458.256 233.986C458.711 234.212 459.503 234.383 460.353 234.095C462.076 233.524 463.596 230.867 463.767 227.964C463.856 226.498 463.593 225.091 463.109 223.918C462.655 222.723 461.92 221.875 461.067 221.695C460.219 221.47 459.596 221.963 459.384 222.411C459.153 222.855 459.247 223.18 459.159 223.206C459.113 223.244 458.821 222.924 458.973 222.263C459.049 221.944 459.252 221.57 459.64 221.272C460.037 220.97 460.611 220.828 461.207 220.911C462.447 221.038 463.529 222.216 464.06 223.504C464.659 224.8 464.988 226.383 464.889 228.03C464.683 231.274 462.923 234.262 460.571 234.86C459.428 235.12 458.492 234.748 458.016 234.352C457.529 233.938 457.456 233.575 457.513 233.547Z" fill="#AA6550"/>
<path d="M375.574 215.43C375.51 217.208 376.965 218.728 378.822 218.828C380.673 218.928 382.229 217.57 382.292 215.792C382.356 214.014 380.901 212.492 379.048 212.392C377.193 212.292 375.637 213.652 375.574 215.43Z" fill="#263238"/>
<path d="M374.839 212.058C375.256 212.497 377.808 210.61 381.432 210.618C385.052 210.577 387.711 212.441 388.104 211.997C388.297 211.801 387.871 211.007 386.713 210.165C385.575 209.325 383.631 208.509 381.372 208.518C379.116 208.53 377.216 209.362 376.125 210.213C375.011 211.067 374.635 211.862 374.839 212.058Z" fill="#263238"/>
<path d="M411.061 216.696C410.998 218.473 412.453 219.993 414.309 220.093C416.161 220.193 417.717 218.834 417.78 217.057C417.842 215.278 416.388 213.757 414.536 213.657C412.681 213.557 411.125 214.918 411.061 216.696Z" fill="#263238"/>
<path d="M410.458 212.735C410.876 213.173 413.43 211.287 417.052 211.296C420.67 211.253 423.33 213.117 423.724 212.673C423.917 212.477 423.496 211.684 422.333 210.841C421.194 210.001 419.25 209.185 416.992 209.195C414.736 209.207 412.837 210.039 411.745 210.889C410.634 211.744 410.254 212.539 410.458 212.735Z" fill="#263238"/>
<path d="M397.307 239.608C397.325 239.402 395.071 239.013 391.422 238.546C390.497 238.45 389.621 238.266 389.465 237.636C389.246 236.966 389.634 235.969 390.082 234.893C390.953 232.653 391.863 230.306 392.819 227.846C396.619 217.814 399.37 209.566 398.965 209.416C398.559 209.268 395.15 217.277 391.35 227.309C390.437 229.782 389.561 232.141 388.729 234.397C388.379 235.448 387.777 236.641 388.249 238.028C388.498 238.72 389.177 239.222 389.771 239.381C390.363 239.562 390.885 239.573 391.341 239.6C395.014 239.798 397.293 239.814 397.307 239.608Z" fill="#263238"/>
<path d="M409.523 198.533C409.881 199.519 413.498 199.052 417.75 199.564C422.011 199.991 425.441 201.236 426.003 200.352C426.255 199.929 425.658 199.003 424.271 198.048C422.898 197.096 420.706 196.191 418.154 195.907C415.602 195.628 413.265 196.033 411.717 196.663C410.155 197.292 409.37 198.065 409.523 198.533Z" fill="#263238"/>
<path d="M376.172 201.571C376.809 202.394 379.305 201.539 382.308 201.499C385.308 201.354 387.851 202.052 388.436 201.191C388.693 200.774 388.292 199.95 387.181 199.17C386.088 198.394 384.256 197.759 382.193 197.82C380.132 197.887 378.344 198.632 377.3 199.475C376.239 200.322 375.891 201.17 376.172 201.571Z" fill="#263238"/>
<path d="M358.889 164C358.637 161.078 359.724 157.94 362.102 156.223C364.481 154.506 368.17 154.614 370.102 156.822C368.996 152.884 372.214 148.343 376.297 148.083C380.141 147.839 383.421 150.744 387.138 151.763C390.765 152.759 394.658 151.898 398.148 150.492C401.638 149.087 404.9 147.148 408.432 145.858C415.802 143.167 424.228 143.504 431.358 146.778C438.486 150.051 444.236 156.22 446.998 163.563C452.154 161.951 458.016 164.57 461.194 168.939C464.374 173.306 465.192 179.043 464.558 184.41C464.132 188.035 463.082 191.539 461.861 194.991C461.862 195.294 461.893 195.591 461.886 195.895C461.642 208.862 460.177 224.088 454.645 224.174C445.004 224.322 447.301 206.155 447.301 206.155C435.469 201.583 439.876 183.855 436.917 181.166C433.96 178.476 427.769 172.227 402.996 184.89C393.377 189.806 380.585 189.651 373.604 188.068C373.398 188.023 373.192 187.992 372.986 187.943C372.944 187.931 372.886 187.924 372.844 187.914C372.768 187.894 372.713 187.852 372.64 187.831C370.414 187.251 368.266 186.39 366.286 185.135C364.041 183.715 362.001 181.794 361.049 179.314C360.098 176.835 360.456 173.74 362.401 171.932C360.573 169.638 359.141 166.923 358.889 164Z" fill="#263238"/>
<path d="M493.389 468.582L495.172 502.043L499.156 550.11H347.656L354.236 479.092L341.332 366.892C342.453 327.246 357.679 310.759 388.828 306.972C389.087 306.942 386.111 307.311 386.373 307.279C390.663 306.774 386.373 307.279 388.828 306.972C408.973 313.175 429.121 313.163 449.267 306.936C458.608 307.332 466.345 310.208 474.291 311.73C499.313 316.526 519.917 335.862 524.92 352.691C529.041 366.548 558.84 486.716 558.84 486.716H499.559L493.389 468.582Z" fill="#363499"/>
<path d="M394.232 250.755C394.801 252.193 395.381 253.655 396.333 254.873C397.285 256.092 398.678 257.059 400.222 257.132C401.87 257.209 403.457 256.235 404.374 254.867C405.294 253.499 405.606 251.792 405.533 250.145C405.466 248.656 404.785 246.879 403.305 246.704C402.689 246.631 402.084 246.868 401.508 247.101C398.916 248.153 396.322 249.205 393.729 250.256" fill="#AA6550"/>
<path d="M397.338 257.154C397.378 256.91 399.086 257.603 401.486 256.642C402.648 256.174 403.921 255.247 404.622 253.793C405.324 252.354 405.462 250.406 404.725 248.705C404.554 248.278 404.297 247.889 404.046 247.542C403.738 247.218 403.796 247.234 403.46 247.282C403.144 247.369 402.632 247.609 402.213 247.771C401.78 247.949 401.354 248.122 400.936 248.293C399.27 248.965 397.764 249.554 396.49 250.03C393.944 250.981 392.33 251.482 392.256 251.305C392.181 251.129 393.657 250.309 396.105 249.126C397.329 248.535 398.797 247.853 400.433 247.115C400.845 246.931 401.265 246.743 401.693 246.551C402.146 246.365 402.493 246.161 403.113 245.966C403.417 245.881 403.848 245.833 404.266 245.999C404.678 246.166 404.933 246.445 405.125 246.678C405.473 247.141 405.78 247.617 406 248.153C406.914 250.279 406.694 252.631 405.761 254.377C404.81 256.157 403.19 257.158 401.813 257.567C400.416 257.998 399.209 257.895 398.444 257.698C397.67 257.495 397.309 257.231 397.338 257.154Z" fill="#263238"/>
<path d="M341.08 461.885L305.4 352.338L302.169 333.945C302.169 333.945 292.461 292.942 292.03 288.884C291.532 284.194 289.153 283.308 287.437 283.61C284.764 284.08 283.212 287.601 283.514 291.638C283.62 293.033 286.161 314.981 286.161 314.981C286.161 314.981 284.961 313.272 281.269 309.51C277.576 305.748 269.696 304.221 261.894 305.314C254.093 306.41 252.005 307.405 252.289 310.456C252.402 311.681 253.196 312.588 254.142 313.246C255.69 314.318 257.628 314.705 259.497 314.469C272.014 312.888 276.112 319.226 276.112 319.226L276.534 321.633C276.534 321.633 268.325 317.012 262.502 319.964C261.553 320.444 260.825 321.052 260.242 321.717C256.914 322.109 253.838 324.282 252.413 327.32C250.929 330.48 251.288 334.428 253.316 337.27C254.285 338.628 255.933 339.809 257.522 339.305C258.361 339.04 258.992 338.358 259.596 337.72C259.913 337.384 260.252 337.048 260.624 336.773L262.75 343.349C262.75 343.349 268.32 357.864 270.028 364.456L287.401 474.768C289.81 490.062 304.293 500.41 319.542 497.732C336.128 494.818 346.296 477.898 341.08 461.885Z" fill="#B78876"/>
<path d="M301.629 351.217C299.394 352.094 296.851 350.662 295.39 348.758C293.929 346.856 293.154 344.512 291.833 342.508C287.881 336.516 279.654 334.337 275.994 328.161C275.485 327.301 275.125 326.078 275.858 325.397C276.538 324.765 277.625 325.09 278.481 325.45C285.785 328.524 293.091 331.598 300.395 334.672" fill="#B78876"/>
<path d="M300.396 334.671C300.432 334.586 299.624 334.147 298.129 333.431C296.635 332.714 294.455 331.718 291.749 330.513C288.927 329.279 285.72 327.877 282.22 326.346C281.317 325.959 280.397 325.562 279.459 325.159C278.555 324.85 277.512 324.045 275.945 324.558C275.177 324.853 274.721 325.765 274.775 326.478C274.793 327.199 275.031 327.794 275.323 328.345C275.935 329.359 276.611 330.299 277.429 331.147C280.693 334.559 284.641 336.499 287.604 338.927C289.105 340.117 290.393 341.394 291.333 342.777C292.276 344.155 292.933 345.643 293.683 346.95C295.067 349.658 297.312 351.314 299.037 351.591C300.799 351.919 301.683 351.242 301.629 351.217C301.601 351.082 300.697 351.531 299.167 351.081C297.632 350.647 295.759 349.139 294.527 346.494C293.855 345.206 293.251 343.685 292.271 342.154C291.292 340.623 289.933 339.223 288.392 337.958C285.34 335.389 281.425 333.389 278.42 330.222C277.667 329.446 277.037 328.561 276.507 327.698C276.017 326.839 275.971 325.922 276.481 325.774C277.013 325.529 278.021 325.95 278.957 326.354C279.901 326.743 280.828 327.125 281.736 327.498C285.277 328.93 288.523 330.243 291.377 331.397C294.131 332.489 296.367 333.351 297.924 333.918C299.481 334.485 300.36 334.758 300.396 334.671Z" fill="#AA6550"/>
<path d="M276.842 321.717C276.673 321.773 276.759 319.801 274.947 317.644C274.055 316.593 272.622 315.689 270.83 315.286C269.039 314.857 266.975 314.882 264.805 315.069C262.63 315.246 260.497 315.445 258.546 315.194C256.607 314.942 254.886 314.34 253.686 313.389C252.453 312.444 252.054 311.097 252.098 310.276C252.133 309.433 252.35 309.017 252.382 309.025C252.467 309.04 252.369 309.488 252.438 310.26C252.509 311.022 252.927 312.116 254.059 312.896C255.167 313.682 256.805 314.201 258.637 314.394C260.478 314.588 262.539 314.377 264.735 314.196C266.93 314.009 269.109 313.998 271.023 314.504C272.945 314.976 274.522 316.05 275.425 317.25C276.351 318.442 276.71 319.634 276.841 320.442C276.966 321.26 276.893 321.716 276.842 321.717Z" fill="#AA6550"/>
<path d="M283.422 290.08C283.547 290.076 283.707 291.746 283.955 294.442C284.246 297.439 284.591 301.012 284.974 304.963C285.415 308.907 285.814 312.476 286.15 315.471C286.463 318.159 286.651 319.826 286.527 319.846C286.412 319.867 286.008 318.234 285.538 315.559C285.062 312.886 284.535 309.172 284.103 305.052C283.674 300.936 283.424 297.192 283.338 294.479C283.247 291.766 283.304 290.084 283.422 290.08Z" fill="#AA6550"/>
<path d="M272.418 327.199C272.393 327.262 271.925 327.094 271.089 326.842C270.289 326.618 268.934 326.263 267.697 327.044C267.097 327.418 266.75 328.126 266.757 328.991C266.738 329.847 267.018 330.775 267.269 331.807C267.516 332.814 267.736 334.103 267.118 335.3C266.502 336.455 265.282 337.226 263.961 337.398C262.605 337.578 261.301 337.055 260.364 336.28C259.42 335.49 258.734 334.508 258.413 333.4C257.869 331.284 257.837 329.38 257.894 327.772C257.978 326.168 258.258 324.872 258.621 324.038C258.988 323.199 259.37 322.843 259.4 322.872C259.464 322.919 259.192 323.326 258.942 324.151C258.694 324.979 258.517 326.231 258.513 327.787C258.53 329.331 258.641 331.236 259.185 333.168C259.741 334.943 261.666 336.799 263.846 336.53C264.913 336.395 265.896 335.76 266.361 334.899C266.828 334.032 266.708 332.976 266.484 331.986C266.266 330.988 265.98 329.979 266.032 328.964C266.034 327.964 266.572 326.942 267.369 326.519C268.965 325.644 270.422 326.21 271.204 326.52C272.029 326.882 272.438 327.15 272.418 327.199Z" fill="#AA6550"/>
<path d="M260.652 335.575C260.694 335.563 260.864 336.017 260.664 336.827C260.468 337.607 259.799 338.777 258.358 339.357C256.947 339.923 254.934 339.669 253.39 338.389C251.842 337.125 250.864 335.055 250.622 332.841C250.38 330.614 250.9 328.449 251.868 326.777C252.828 325.086 254.202 323.927 255.448 323.213C256.706 322.491 257.854 322.199 258.642 322.085C259.435 321.977 259.876 322.023 259.88 322.074C259.919 322.241 258.087 322.263 255.77 323.741C254.638 324.479 253.412 325.602 252.572 327.169C251.722 328.721 251.271 330.713 251.491 332.746C251.711 334.77 252.59 336.649 253.907 337.77C255.21 338.906 256.934 339.186 258.151 338.774C259.384 338.362 260.074 337.394 260.34 336.722C260.618 336.026 260.576 335.577 260.652 335.575Z" fill="#AA6550"/>
<path d="M277.354 348.626C277.34 348.547 278.113 348.303 279.454 348.43C280.773 348.55 282.7 349.142 284.325 350.705L283.609 350.998C283.605 350.067 283.657 349.057 283.78 348.019C284.444 342.227 287.16 338.214 287.321 338.367C287.564 338.478 285.281 342.547 284.649 348.122C284.53 349.126 284.468 350.101 284.448 351.003L284.426 351.999L283.733 351.298C282.313 349.858 280.593 349.203 279.374 348.95C278.138 348.689 277.364 348.742 277.354 348.626Z" fill="#AA6550"/>
<path d="M272.917 311.295C273.136 311.375 272.457 313.042 270.616 314.074C268.784 315.124 267.007 314.852 267.051 314.623C267.049 314.37 268.596 314.236 270.184 313.314C271.791 312.423 272.699 311.163 272.917 311.295Z" fill="#AA6550"/>
<path d="M369.341 311.285C369.375 311.322 368.855 311.817 367.96 312.842C367.111 313.875 365.724 315.425 364.867 317.809C364.656 318.402 364.543 319.053 364.516 319.73C364.523 320.409 364.683 321.102 365.024 321.749C365.751 323.035 367.191 323.986 368.869 324.603C372.251 325.867 376.469 326.239 381.064 326.326C383.364 326.37 385.836 326.457 388.375 326.606C389.645 326.755 390.939 326.907 392.257 327.061C393.579 327.205 394.893 327.558 396.249 327.806C401.601 329.018 407.309 331.078 412.277 334.926C414.763 336.821 417.053 339.13 418.899 341.869C419.344 342.566 419.776 343.277 420.155 344.033C420.543 344.813 420.813 345.581 421.137 346.346C421.729 347.903 422.213 349.541 422.524 351.219C423.856 357.917 422.831 365.321 419.385 371.71C415.907 378.127 409.997 382.781 403.629 385.165C400.435 386.37 397.095 386.995 393.813 387.114C390.515 387.218 387.316 386.63 384.325 385.959C381.324 385.295 378.432 384.594 375.599 384.401C372.779 384.207 370.021 384.605 367.679 385.799C365.325 386.975 363.407 388.759 361.747 390.611C360.085 392.478 358.671 394.439 357.272 396.301C354.504 400.015 351.576 403.291 348.157 405.01C346.48 405.861 344.707 406.363 343.077 406.338C341.449 406.35 339.979 406.026 338.745 405.531C337.509 405.034 336.515 404.357 335.771 403.651C335.037 402.93 334.572 402.183 334.281 401.549C333.736 400.257 333.813 399.502 333.813 399.502C333.9 399.482 333.931 400.23 334.533 401.426C334.851 402.014 335.328 402.697 336.052 403.35C336.787 403.986 337.751 404.591 338.939 405.026C341.285 405.895 344.637 406.117 347.799 404.322C351.003 402.633 353.785 399.442 356.483 395.714C357.848 393.85 359.257 391.841 360.943 389.902C362.632 387.979 364.623 386.071 367.159 384.771C369.691 383.447 372.711 382.995 375.676 383.182C378.656 383.366 381.609 384.067 384.597 384.707C387.587 385.361 390.633 385.901 393.773 385.789C396.907 385.661 400.096 385.054 403.148 383.893C409.24 381.591 414.864 377.141 418.167 371.045C421.448 364.962 422.445 357.87 421.188 351.477C420.895 349.869 420.443 348.319 419.876 346.815C419.565 346.07 419.292 345.298 418.957 344.623C418.611 343.926 418.207 343.255 417.789 342.597C416.055 339.998 413.875 337.773 411.497 335.941C406.745 332.211 401.219 330.161 395.993 328.929C394.668 328.675 393.385 328.314 392.091 328.161C390.796 327.995 389.525 327.833 388.28 327.674C385.767 327.499 383.377 327.383 381.04 327.309C376.389 327.151 372.113 326.721 368.584 325.325C366.839 324.642 365.255 323.582 364.44 322.061C364.059 321.299 363.899 320.483 363.913 319.719C363.963 318.959 364.113 318.254 364.356 317.629C365.353 315.131 366.827 313.646 367.755 312.651C368.725 311.677 369.313 311.251 369.341 311.285Z" fill="#FAFAFA"/>
<path d="M470.768 400.187C470.702 400.204 470.368 399.156 470.13 397.188C469.872 395.226 469.904 392.307 470.684 388.827C471.446 385.347 473.154 381.378 475.859 377.516C478.582 373.674 482.371 369.987 487.059 367.19C491.759 364.448 496.711 362.754 501.294 361.814C505.882 360.855 510.098 360.563 513.62 360.546C517.146 360.526 519.988 360.736 521.94 360.964C523.894 361.192 524.962 361.402 524.952 361.491C524.932 361.736 520.607 361.259 513.646 361.527C510.171 361.668 506.034 362.058 501.564 363.063C497.099 364.051 492.31 365.736 487.763 368.384C483.26 371.074 479.58 374.596 476.899 378.264C474.232 381.95 472.491 385.731 471.636 389.066C470.763 392.396 470.579 395.219 470.67 397.152C470.739 399.087 470.89 400.166 470.768 400.187Z" fill="#FAFAFA"/>
<path d="M543.624 423.364C543.69 423.413 543.173 424.276 542.057 425.71C540.945 427.144 539.166 429.1 536.688 431.217C534.214 433.337 530.981 435.552 527.074 437.408C523.177 439.269 518.582 440.711 513.618 441.333C508.648 441.909 503.841 441.603 499.61 440.723C495.374 439.848 491.706 438.467 488.801 436.997C485.889 435.53 483.696 434.053 482.274 432.923C480.85 431.796 480.144 431.083 480.197 431.019C480.357 430.796 483.405 433.455 489.222 436.109C494.966 438.773 503.781 441.115 513.452 439.953C523.118 438.781 531.122 434.409 536.068 430.456C541.086 426.495 543.416 423.187 543.624 423.364Z" fill="#FAFAFA"/>
<path d="M476.659 419.101C476.672 419.16 476.231 419.284 475.442 419.597C474.655 419.908 473.528 420.506 472.392 421.629C471.258 422.757 470.179 424.428 469.32 426.553C468.467 428.681 467.772 431.229 467.179 434.076C466.568 436.926 466.094 440.126 465.008 443.474C464.452 445.138 463.732 446.842 462.7 448.442C461.659 450.032 460.356 451.52 458.814 452.786C455.746 455.357 451.898 457.146 447.798 458.354C443.691 459.572 439.34 460.24 434.974 461.094C426.254 462.706 418.262 465.94 412.18 470.589C409.132 472.89 406.586 475.52 404.583 478.246C402.623 481.009 401.203 483.864 400.248 486.588C398.366 492.072 398.36 496.896 398.842 500.082C399.322 503.296 400.048 504.982 399.911 505.029C399.866 505.048 399.674 504.636 399.346 503.832C399.166 503.433 399.007 502.92 398.828 502.308C398.627 501.702 398.466 500.985 398.307 500.172C397.651 496.944 397.496 491.972 399.316 486.277C400.242 483.448 401.652 480.47 403.644 477.58C405.682 474.72 408.28 471.976 411.403 469.573C417.624 464.722 425.848 461.366 434.706 459.733C439.115 458.87 443.419 458.214 447.415 457.049C451.395 455.897 455.087 454.197 457.998 451.8C459.464 450.621 460.69 449.242 461.678 447.776C462.655 446.296 463.359 444.698 463.916 443.106C465.01 439.904 465.544 436.73 466.219 433.865C466.884 430.99 467.655 428.42 468.606 426.249C469.562 424.082 470.764 422.364 472.02 421.237C473.28 420.112 474.508 419.568 475.348 419.334C476.191 419.096 476.652 419.066 476.659 419.101Z" fill="#FAFAFA"/>
<path d="M440.928 413.539C440.982 413.512 441.476 414.429 441.623 416.265C441.775 418.072 441.378 420.877 439.494 423.643C438.548 424.999 437.244 426.364 435.478 427.289C434.614 427.784 433.62 428.099 432.586 428.34C431.54 428.513 430.442 428.601 429.33 428.473C427.107 428.244 424.855 427.364 422.927 425.883C421.019 424.399 419.428 422.251 418.798 419.7C418.399 418.073 418.366 416.38 418.734 414.788C419.082 413.176 419.967 411.756 420.859 410.607C421.763 409.425 422.726 408.348 423.787 407.411C424.314 406.94 424.87 406.508 425.482 406.143C426.094 405.789 426.751 405.453 427.572 405.413L427.751 406.604C427.523 406.661 427.307 406.716 427.091 406.769L426.76 405.621C429.446 404.848 432.075 405.195 434.11 406.019C436.18 406.808 437.702 408.067 438.747 409.227C439.791 410.404 440.35 411.521 440.644 412.296C440.914 413.085 440.983 413.523 440.928 413.539C440.75 413.621 440.348 411.819 438.24 409.707C437.186 408.685 435.711 407.587 433.77 406.937C431.863 406.247 429.468 406.027 427.119 406.761L426.788 405.613C427.003 405.555 427.218 405.495 427.444 405.433L427.623 406.623C426.683 406.713 425.584 407.511 424.644 408.369C423.68 409.247 422.774 410.288 421.935 411.411C421.079 412.549 420.368 413.721 420.075 415.096C419.767 416.46 419.795 417.943 420.146 419.367C420.692 421.577 422.07 423.465 423.766 424.811C425.476 426.148 427.494 426.964 429.47 427.201C430.459 427.333 431.432 427.269 432.362 427.139C433.278 426.943 434.163 426.692 434.946 426.268C436.544 425.488 437.775 424.285 438.696 423.069C440.534 420.589 441.067 417.999 441.082 416.279C441.108 414.532 440.802 413.571 440.928 413.539Z" fill="#FAFAFA"/>
<path d="M354.898 369.988C354.91 369.989 354.914 370.11 354.91 370.346C354.901 370.622 354.89 370.966 354.876 371.394C354.828 372.365 354.762 373.71 354.678 375.414C354.47 378.904 354.261 383.96 353.982 390.202C353.461 402.692 352.95 419.954 352.545 439.024C352.137 458.101 351.888 475.372 351.708 487.873C351.614 494.082 351.537 499.126 351.482 502.677C351.446 504.382 351.418 505.729 351.397 506.702C351.381 507.128 351.369 507.472 351.358 507.748C351.346 507.984 351.333 508.105 351.321 508.105C351.31 508.105 351.298 507.984 351.288 507.748C351.28 507.472 351.269 507.128 351.258 506.701C351.248 505.728 351.232 504.382 351.213 502.676C351.214 499.124 351.216 494.078 351.217 487.868C351.27 475.364 351.442 458.089 351.852 439.009C352.256 419.936 352.844 402.669 353.492 390.18C353.833 383.936 354.117 378.884 354.409 375.398C354.548 373.696 354.657 372.353 354.737 371.384C354.778 370.96 354.813 370.616 354.838 370.341C354.866 370.106 354.885 369.986 354.898 369.988Z" fill="#263238"/>
<g opacity="0.199997">
<g opacity="0.199997">
<path opacity="0.199997" d="M329.413 493.964C336.85 497.522 346.578 490.687 350.378 483.371C350.378 483.371 352.365 467.243 352.087 459.002C351.574 443.748 352.689 428.644 352.177 413.39C351.026 422.464 347.197 431.183 341.291 438.168C339.659 440.1 337.81 442.015 337.201 444.47C336.11 448.866 339.47 456.782 341.629 460.764C348.238 472.948 333.763 494.047 329.894 493.654" fill="black"/>
</g>
</g>
<g opacity="0.199997">
<g opacity="0.199997">
<path opacity="0.199997" d="M468.648 394.433C471.084 424.834 473.52 455.237 475.955 485.637C476.186 488.509 476.43 491.438 477.559 494.089C478.686 496.738 480.874 499.11 483.696 499.684C488.018 500.565 492.208 496.848 493.428 492.609C494.648 488.37 493.675 483.844 492.614 479.562C490.806 472.269 488.754 465.04 486.703 457.812C480.754 436.842 474.803 415.872 468.854 394.902" fill="black"/>
</g>
</g>
<path d="M385.086 550.152C384.934 550.068 386.351 548.627 387.114 545.311C387.87 542.023 387.395 536.929 384.846 531.411C383.587 528.657 381.815 525.795 380.029 522.64C378.261 519.488 376.386 515.977 375.514 511.867C374.615 507.752 375.129 503.235 376.458 498.964C377.765 494.667 379.714 490.493 381.285 486.121C384.621 477.453 384.45 468.208 381.95 460.621C380.722 456.813 378.951 453.407 376.895 450.504C374.821 447.612 372.483 445.216 370.155 443.272C365.447 439.409 360.853 437.377 357.635 436.289C354.395 435.204 352.506 434.912 352.53 434.784C352.538 434.736 353.013 434.779 353.914 434.904C354.813 435.036 356.135 435.288 357.798 435.773C361.111 436.719 365.865 438.647 370.773 442.509C373.202 444.453 375.647 446.875 377.83 449.829C379.993 452.796 381.862 456.299 383.167 460.223C384.463 464.144 385.217 468.473 385.169 472.979C385.182 477.48 384.233 482.148 382.593 486.589C380.989 491.044 379.043 495.192 377.759 499.363C376.453 503.513 375.961 507.736 376.769 511.609C377.553 515.492 379.322 518.932 381.035 522.08C382.765 525.237 384.502 528.144 385.743 531.013C388.25 536.732 388.594 542.051 387.641 545.437C387.191 547.141 386.481 548.324 385.997 549.095C385.438 549.824 385.121 550.18 385.086 550.152Z" fill="#FAFAFA"/>
<path d="M510.25 330.805C510.317 330.833 509.995 331.851 508.955 333.459C507.931 335.063 506.059 337.204 503.167 339.076C500.299 340.961 496.339 342.46 491.801 342.836C487.265 343.241 482.237 342.563 477.278 340.984C472.315 339.413 467.795 336.941 464.603 333.625C463.017 331.98 461.738 330.164 460.907 328.288C460.078 326.416 459.63 324.545 459.471 322.821C459.153 319.352 460.014 316.551 460.953 314.887C461.169 314.455 461.411 314.104 461.629 313.804C461.833 313.496 462.03 313.256 462.209 313.075C462.551 312.705 462.745 312.529 462.781 312.56C462.886 312.641 462.19 313.441 461.439 315.123C460.687 316.787 460.026 319.46 460.447 322.715C460.658 324.332 461.134 326.075 461.951 327.804C462.769 329.527 463.994 331.197 465.514 332.728C468.566 335.8 472.89 338.139 477.699 339.661C482.515 341.195 487.354 341.88 491.699 341.56C496.051 341.267 499.834 339.944 502.65 338.241C505.485 336.555 507.389 334.607 508.517 333.144C509.659 331.679 510.145 330.751 510.25 330.805Z" fill="#FAFAFA"/>
<path d="M491.999 474.234C491.987 474.238 491.939 474.11 491.857 473.861C491.767 473.571 491.653 473.203 491.511 472.743C491.207 471.709 490.783 470.265 490.243 468.429C489.157 464.625 487.609 459.205 485.703 452.527C481.924 439.039 476.725 420.486 470.981 399.993C468.136 389.726 465.424 379.947 462.957 371.045C461.736 366.593 460.669 362.311 460.117 358.218C459.557 354.131 459.525 350.242 460.083 346.762C461.237 339.766 464.673 334.802 467.624 332.254C469.104 330.95 470.459 330.218 471.368 329.738C471.812 329.549 472.169 329.398 472.448 329.279C472.693 329.181 472.82 329.137 472.825 329.149C472.889 329.251 470.715 329.857 467.804 332.454C464.952 335.027 461.641 339.951 460.568 346.839C460.051 350.262 460.108 354.099 460.688 358.139C461.257 362.186 462.337 366.433 463.575 370.874C466.057 379.771 468.787 389.545 471.651 399.807C477.317 420.322 482.448 438.894 486.177 452.395C487.993 459.098 489.469 464.539 490.503 468.357C490.989 470.207 491.371 471.663 491.645 472.706C491.76 473.173 491.853 473.547 491.925 473.841C491.984 474.098 492.009 474.231 491.999 474.234Z" fill="#263238"/>
<path d="M437.699 178.967C437.608 178.958 437.943 177.939 437.711 176.114C437.483 174.318 436.468 171.692 434.024 169.491C431.651 167.227 427.743 165.878 423.408 165.986C419.046 166.022 414.408 167.455 409.616 169.07C407.206 169.863 404.832 170.62 402.476 171.14C400.116 171.651 397.795 171.924 395.58 171.979C391.14 172.112 387.17 171.39 383.964 170.452C380.76 169.478 378.314 168.288 376.694 167.37C375.876 166.918 375.271 166.52 374.867 166.242C374.46 165.967 374.255 165.812 374.267 165.792C374.306 165.731 375.168 166.296 376.822 167.131C378.468 167.97 380.92 169.078 384.1 169.98C387.282 170.846 391.199 171.506 395.56 171.34C397.738 171.27 400.012 170.987 402.328 170.478C404.642 169.956 406.992 169.203 409.398 168.41C414.183 166.799 418.918 165.347 423.4 165.346C427.851 165.263 431.934 166.724 434.358 169.131C436.851 171.463 437.83 174.222 437.98 176.082C438.132 177.976 437.699 178.967 437.699 178.967Z" fill="#455A64"/>
<path d="M456.034 218.817C456.013 218.828 455.906 218.657 455.725 218.321C455.535 217.988 455.289 217.481 454.991 216.818C454.401 215.492 453.665 213.508 453.114 210.957C452.577 208.41 452.238 205.29 452.506 201.842C452.723 198.376 453.799 194.718 454.61 190.888C455.449 187.068 455.643 183.264 454.63 180.049C454.145 178.45 453.354 177.045 452.371 175.942C451.383 174.864 450.173 174.126 448.983 173.721C446.583 172.876 444.419 173.257 443.165 173.869C441.897 174.516 441.411 175.2 441.353 175.138C441.353 175.138 441.751 174.384 443.039 173.629C444.314 172.912 446.589 172.425 449.141 173.256C450.403 173.654 451.711 174.406 452.797 175.556C453.859 176.706 454.715 178.186 455.241 179.857C456.337 183.208 456.138 187.165 455.289 191.028C454.467 194.909 453.389 198.51 453.143 201.894C452.846 205.27 453.127 208.34 453.594 210.861C454.077 213.384 454.733 215.369 455.241 216.716C455.749 218.065 456.09 218.79 456.034 218.817Z" fill="#455A64"/>
<path d="M439.963 177.063C439.938 177.06 439.945 176.733 439.973 176.116C439.998 175.428 440.033 174.531 440.074 173.412C440.098 171.083 440.173 167.621 438.986 163.619C438.378 161.639 437.381 159.545 435.834 157.671C434.303 155.8 432.153 154.165 429.513 153.493C426.886 152.777 423.934 153.029 421.074 153.839C418.195 154.651 415.421 156.087 412.635 157.664C409.846 159.236 407.119 160.84 404.269 161.968C401.405 163.068 398.458 163.645 395.645 163.7C392.83 163.763 390.154 163.401 387.747 162.731C385.341 162.047 383.198 161.117 381.339 160.091C377.649 157.969 375.203 155.469 373.754 153.615C373.006 152.696 372.526 151.913 372.215 151.373C371.895 150.84 371.739 150.556 371.761 150.544C371.781 150.532 371.978 150.792 372.333 151.299C372.679 151.811 373.193 152.563 373.963 153.445C375.461 155.227 377.923 157.632 381.579 159.661C383.419 160.643 385.534 161.528 387.897 162.175C390.262 162.809 392.882 163.14 395.627 163.061C398.375 162.988 401.23 162.416 404.017 161.336C406.801 160.225 409.495 158.637 412.295 157.059C415.086 155.479 417.923 154.011 420.889 153.184C423.831 152.361 426.911 152.103 429.678 152.875C432.462 153.603 434.714 155.349 436.279 157.305C437.867 159.269 438.862 161.436 439.455 163.479C440.609 167.595 440.449 171.084 440.343 173.423C440.274 174.6 440.183 175.511 440.113 176.127C440.039 176.743 439.987 177.064 439.963 177.063Z" fill="#455A64"/>
<path d="M404.746 510.455L504.457 495.583L502.846 486.715H556.513L558.085 500.358C562.945 525.635 543.726 549.143 517.987 549.403L401.691 548.113L404.746 510.455Z" fill="#B78876"/>
<path d="M411.941 512.17C411.408 512.347 404.692 509.337 398.674 506.553C392.286 503.597 385.28 502.237 378.249 502.593L350.526 504.003C350.526 504.003 352.24 508.578 355.18 510.202C358.12 511.829 375.354 512.177 375.354 512.177L374.47 513.086C370.838 516.825 365.885 518.993 360.673 519.123L358.024 519.191C356.058 519.034 354.117 518.655 352.238 518.059L345.401 515.297C343.332 514.363 341.145 514.515 340.246 516.598C339.43 518.483 340.028 521.081 345.673 523.923C348.829 525.514 360.528 529.558 360.528 529.558C360.528 529.558 360.698 532.794 361.209 534.497C361.721 536.198 366.317 537.902 366.317 537.902C366.317 537.902 369.212 543.862 370.405 545.223C370.938 545.834 375.101 547.13 379.53 548.371C386.684 550.379 394.257 550.331 401.374 548.206L411.941 545.053V512.871" fill="#B78876"/>
<path d="M374.02 533.195C374.005 533.374 370.718 533.204 366.812 532.167C362.898 531.147 359.953 529.676 360.03 529.515C360.109 529.327 363.134 530.492 366.988 531.496C370.834 532.516 374.044 532.992 374.02 533.195Z" fill="#AA6550"/>
<path d="M373.044 539.687C373.045 539.87 371.255 539.983 369.144 539.404C367.031 538.835 365.544 537.83 365.637 537.675C365.733 537.496 367.303 538.192 369.327 538.734C371.345 539.29 373.052 539.486 373.044 539.687Z" fill="#AA6550"/>
<path d="M530.797 518.838C530.669 518.885 530.007 516.91 528.409 513.989C527.621 512.523 526.539 510.859 525.217 509.106C523.862 507.378 522.247 505.577 520.371 503.871C518.475 502.19 516.509 500.777 514.645 499.615C512.761 498.489 510.99 497.593 509.447 496.967C506.371 495.691 504.337 495.246 504.37 495.114C504.381 495.067 504.891 495.154 505.813 495.354C506.274 495.445 506.835 495.578 507.473 495.787C508.11 495.989 508.85 496.185 509.629 496.51C511.215 497.087 513.039 497.951 514.974 499.067C516.889 500.218 518.903 501.642 520.834 503.355C522.746 505.09 524.378 506.941 525.726 508.721C527.045 510.525 528.101 512.245 528.843 513.759C529.251 514.498 529.526 515.213 529.795 515.826C530.071 516.435 530.263 516.979 530.405 517.429C530.701 518.323 530.842 518.822 530.797 518.838Z" fill="#AA6550"/>
<path d="M378.108 509.677C378.169 509.742 377.376 510.638 375.967 511.963C374.552 513.278 372.501 515.035 369.927 516.538C367.348 518.038 364.748 518.881 362.848 519.269C360.94 519.655 359.736 519.685 359.727 519.606C359.661 519.354 364.531 518.907 369.579 515.935C372.089 514.471 374.155 512.806 375.643 511.594C377.124 510.371 378.037 509.602 378.108 509.677Z" fill="#AA6550"/>
<path d="M91.2616 478.019C93.639 478.019 73.1003 533.187 67.8163 547.279C67.231 548.84 66.8203 550.214 66.8203 550.214L210.584 550.463L208.89 416.699C208.888 416.61 208.882 416.523 208.871 416.435L196.847 320.753C196.728 319.803 196.052 319.019 195.13 318.768C189.438 317.224 168.926 311.932 153.232 311.35C134.834 310.668 108.23 314.318 108.23 314.318C108.23 314.318 84.3563 316.78 71.219 321.519C70.1643 321.899 69.5216 322.96 69.6776 324.071L91.2616 478.019Z" fill="#363499"/>
<path d="M157.655 418.727C157.699 418.749 157.44 419.363 156.935 420.465C156.691 421.021 156.369 421.689 155.924 422.426C155.488 423.169 155.039 424.045 154.399 424.923C153.796 425.827 153.123 426.809 152.299 427.786C151.531 428.81 150.579 429.79 149.604 430.846C147.575 432.878 145.161 434.938 142.395 436.775C139.604 438.578 136.751 439.969 134.076 441.015C132.719 441.487 131.44 441.969 130.195 442.263C128.968 442.629 127.8 442.853 126.732 443.043C125.671 443.279 124.687 443.342 123.832 443.445C122.979 443.558 122.237 443.586 121.631 443.587C120.419 443.61 119.752 443.599 119.751 443.553C119.743 443.399 122.432 443.417 126.639 442.562C127.688 442.342 128.836 442.093 130.037 441.709C131.26 441.395 132.513 440.899 133.845 440.419C136.468 439.354 139.267 437.969 142.015 436.194C144.737 434.386 147.125 432.373 149.149 430.395C150.123 429.366 151.077 428.417 151.853 427.422C152.685 426.473 153.373 425.522 153.995 424.646C156.459 421.131 157.517 418.659 157.655 418.727Z" fill="#263238"/>
<g opacity="0.199997">
<g opacity="0.199997">
<path opacity="0.199997" d="M71.7017 536.854C85.3083 542.627 100.986 540.378 112.948 531.695C118.132 527.932 122.482 523.01 128.076 519.888C135.834 515.559 145.082 515.15 153.943 514.518C165.803 513.671 177.756 512.215 188.906 508.086C191.166 507.248 193.476 506.239 195.019 504.388C196.563 502.539 197.08 499.619 195.574 497.739C194.034 495.819 191.199 495.711 188.738 495.783C151.559 496.88 117.588 499.862 81.4003 508.459" fill="black"/>
</g>
</g>
<path d="M111.77 173.731C123.261 162.033 141.395 155.126 156.418 161.699C166.519 166.119 173.37 175.598 182.235 182.151C188.691 186.925 196.669 190.614 200.053 197.895C203.035 204.314 201.597 211.786 200.877 218.829C200.157 225.87 200.661 233.993 206.115 238.505C208.979 240.874 212.745 241.811 215.97 243.658C222.463 247.378 226.319 254.618 227.71 261.97C229.101 269.322 228.35 276.889 227.595 284.334L196.651 290.23L191.569 281.681L189.797 295.122L150.306 298.686L111.77 173.731Z" fill="#263238"/>
<path d="M106.667 186.503L106.6 195.113L104.164 324.186C103.952 339.146 118.267 351.886 134.288 351.99C150.469 352.095 157.069 339.94 157.532 324.83C158.019 308.972 158.821 292.283 158.821 292.283C158.821 292.283 179.347 289.454 184.315 262.913C186.785 249.713 186.72 227.958 186.089 210.158C185.524 194.138 171.747 181.811 155.764 183.058L106.667 186.503Z" fill="#FFBE9D"/>
<path d="M179.058 227.304C179.072 229.11 177.552 230.613 175.666 230.662C173.782 230.712 172.242 229.29 172.227 227.482C172.214 225.676 173.731 224.172 175.615 224.122C177.502 224.073 179.044 225.497 179.058 227.304Z" fill="#263238"/>
<path d="M181.062 221.336C180.626 221.771 178.089 219.782 174.409 219.691C170.735 219.547 167.983 221.364 167.597 220.903C167.406 220.698 167.859 219.906 169.059 219.082C170.241 218.262 172.237 217.487 174.529 217.559C176.819 217.636 178.725 218.532 179.809 219.427C180.915 220.326 181.277 221.142 181.062 221.336Z" fill="#263238"/>
<path d="M142.817 227.304C142.831 229.11 141.312 230.613 139.425 230.662C137.541 230.712 136 229.29 135.985 227.482C135.972 225.676 137.491 224.172 139.375 224.122C141.261 224.073 142.803 225.497 142.817 227.304Z" fill="#263238"/>
<path d="M144.88 221.026C144.443 221.459 141.903 219.472 138.227 219.38C134.553 219.236 131.8 221.054 131.413 220.592C131.224 220.387 131.673 219.595 132.877 218.771C134.057 217.95 136.053 217.176 138.345 217.248C140.636 217.324 142.541 218.222 143.627 219.115C144.731 220.015 145.093 220.831 144.88 221.026Z" fill="#263238"/>
<path d="M157.48 248.677C157.468 248.468 159.766 248.136 163.485 247.764C164.426 247.693 165.321 247.531 165.497 246.895C165.737 246.221 165.372 245.199 164.948 244.093C164.126 241.795 163.268 239.387 162.366 236.863C158.788 226.571 156.228 218.119 156.642 217.979C157.058 217.839 160.296 226.065 163.872 236.357C164.732 238.895 165.553 241.313 166.336 243.627C166.661 244.705 167.24 245.932 166.721 247.328C166.449 248.023 165.745 248.513 165.138 248.659C164.53 248.825 164.002 248.821 163.536 248.836C159.802 248.933 157.488 248.887 157.48 248.677Z" fill="#263238"/>
<path d="M158.821 292.283C158.821 292.283 140.854 292.945 123.381 281.775C123.381 281.775 131.537 300.326 158.288 298.567L158.821 292.283Z" fill="#EB996E"/>
<path d="M155.68 257.501C154.404 255.716 152.113 254.692 149.805 254.876C148.204 255.002 146.569 255.728 145.564 257.001C144.557 258.276 144.304 260.114 145.15 261.38C146.105 262.802 148.17 263.182 149.94 262.732C151.71 262.281 153.253 261.168 154.72 260.056C155.125 259.748 155.541 259.425 155.801 258.996C156.061 258.566 156.129 257.997 155.833 257.626" fill="#EB996E"/>
<path d="M146.582 250.924C147.181 250.905 147.08 254.899 150.418 257.828C153.752 260.765 158.022 260.435 158.037 260.995C158.086 261.245 157.068 261.743 155.27 261.743C153.505 261.755 150.948 261.117 148.905 259.325C146.866 257.531 146.034 255.185 145.944 253.544C145.837 251.869 146.309 250.893 146.582 250.924Z" fill="#263238"/>
<path d="M146.049 210.324C145.658 211.315 141.998 210.739 137.668 211.14C133.328 211.455 129.813 212.622 129.265 211.708C129.021 211.272 129.654 210.348 131.088 209.419C132.509 208.49 134.761 207.632 137.36 207.415C139.958 207.203 142.321 207.68 143.874 208.363C145.441 209.046 146.217 209.854 146.049 210.324Z" fill="#263238"/>
<path d="M181.199 213.904C180.388 214.717 177.327 213.765 173.617 213.623C169.916 213.373 166.753 213.995 166.053 213.101C165.749 212.668 166.265 211.845 167.66 211.092C169.033 210.34 171.315 209.759 173.863 209.892C176.408 210.029 178.597 210.848 179.863 211.739C181.151 212.633 181.557 213.507 181.199 213.904Z" fill="#263238"/>
<path d="M79.1528 319.079C79.1528 319.079 36.2742 329.14 27.9582 369.802C24.1382 388.486 18.7835 495.768 43.7755 512.434C76.0315 533.943 117.035 514.371 117.035 514.371L111.77 462.479H85.1475L81.5542 405.63C82.5568 409.99 79.1528 319.079 79.1528 319.079Z" fill="#363499"/>
<path d="M231.691 497.673C240.003 496.819 247.933 492.689 253.396 486.367C258.859 480.045 261.797 471.598 261.435 463.251L243.923 388.822C243.923 388.822 232.565 324.949 196.652 319.19L208.888 416.566L207.72 437.087C207.72 437.087 208.276 450.662 209.657 476.097L231.691 497.673Z" fill="#363499"/>
<path d="M236.338 451.097C236.34 451.248 233.808 450.977 229.872 451.807C225.978 452.6 220.642 454.788 216.346 459.164C212.059 463.549 209.982 468.929 209.268 472.841C208.52 476.792 208.843 479.319 208.692 479.319C208.654 479.323 208.547 478.701 208.488 477.565C208.426 476.429 208.467 474.772 208.784 472.755C209.386 468.752 211.438 463.189 215.85 458.677C220.27 454.176 225.787 452.009 229.778 451.325C231.787 450.965 233.443 450.891 234.58 450.929C235.718 450.964 236.34 451.059 236.338 451.097Z" fill="#263238"/>
<path d="M125.706 170.757C130.536 177.239 132.83 182.219 135.725 193.747C137.142 199.394 132.552 203.381 127.992 206.829C125.854 208.445 122.764 207.315 122.18 204.701C122.18 204.701 123.764 222.367 117.376 230.287C114.382 234.001 114.256 238.765 114.966 242.778C115.692 246.877 117.802 250.565 120.672 253.581C128.077 261.367 130.134 274.069 125.025 283.618C123.717 286.063 122.01 288.302 120.965 290.87C120.368 292.341 120.02 293.985 120.114 295.559C120.233 297.503 118.894 299.225 116.965 299.503C95.0476 302.685 72.765 303.355 50.6956 301.497C49.1423 301.366 47.8103 300.266 47.4516 298.75C45.7223 291.429 48.6063 283.446 52.3063 276.705C56.437 269.178 61.6983 261.955 63.121 253.487C64.4583 245.518 62.2836 236.923 65.4836 229.505C69.4143 220.398 80.0956 216.093 85.4436 207.739C90.4876 199.858 90.0836 189.525 94.6036 181.33C100.406 170.81 114.694 165.953 125.706 170.757Z" fill="#263238"/>
<path d="M126.937 180.541C135.322 184.852 139.197 195.107 147.342 199.855C154.761 204.179 164.018 203.037 172.51 201.761C172.194 199.877 171.879 197.995 171.563 196.111C172.423 197.763 173.314 199.455 174.711 200.685C176.107 201.916 178.145 202.603 179.871 201.907C182.719 200.76 183.098 196.84 182.367 193.857C181.195 189.08 178.406 184.807 174.954 181.301C168.682 174.932 160.073 170.917 151.162 170.205C142.251 169.492 133.113 172.089 125.909 177.381" fill="#263238"/>
<path d="M205.565 370.341C205.589 370.341 205.615 370.702 205.643 371.389C205.667 372.141 205.698 373.141 205.735 374.393C205.787 377.001 205.918 380.773 206.118 385.433C206.499 394.754 207.37 407.61 208.421 421.811C209.471 436.014 210.265 448.891 210.522 458.226C210.658 462.891 210.715 466.67 210.683 469.281C210.667 470.534 210.654 471.534 210.646 472.286C210.629 472.974 210.609 473.334 210.585 473.334C210.561 473.334 210.534 472.974 210.506 472.287C210.482 471.535 210.451 470.535 210.414 469.283C210.362 466.675 210.231 462.903 210.033 458.243C209.649 448.923 208.778 436.065 207.729 421.861C206.678 407.661 205.883 394.785 205.626 385.451C205.49 380.785 205.434 377.006 205.465 374.395C205.482 373.142 205.494 372.142 205.505 371.389C205.521 370.702 205.541 370.341 205.565 370.341Z" fill="#263238"/>
<path d="M85.1467 462.479C85.1227 462.479 85.0907 462.223 85.0507 461.732C85.0147 461.167 84.968 460.457 84.912 459.592C84.8027 457.636 84.6547 454.969 84.4734 451.72C84.0947 445.071 83.5107 435.893 82.8187 425.756C82.1174 415.661 81.4814 406.527 81.0134 399.796C80.8 396.547 80.624 393.881 80.496 391.925C80.452 391.06 80.4147 390.351 80.3867 389.784C80.368 389.293 80.3694 389.035 80.3947 389.033C80.4174 389.031 80.4627 389.285 80.5254 389.772C80.5894 390.337 80.668 391.041 80.7654 391.904C80.9494 393.855 81.1987 396.513 81.5027 399.757C82.0867 406.393 82.82 415.565 83.5107 425.709C84.204 435.848 84.7107 445.037 84.964 451.695C85.0814 455.024 85.1694 457.72 85.1827 459.583C85.1854 460.451 85.1894 461.161 85.1907 461.729C85.1854 462.22 85.1707 462.477 85.1467 462.479Z" fill="#263238"/>
<path d="M85.1468 462.479C85.1588 462.603 83.7561 462.664 81.6561 463.372C79.5734 464.061 76.7934 465.547 74.6228 468.117C72.4561 470.692 71.4614 473.685 71.1361 475.855C70.7934 478.043 70.9708 479.437 70.8468 479.445C70.8041 479.451 70.7148 479.111 70.6414 478.48C70.5654 477.849 70.5361 476.925 70.6494 475.789C70.8588 473.537 71.8174 470.373 74.0921 467.671C76.3694 464.971 79.3268 463.491 81.5108 462.903C82.6108 462.599 83.5268 462.471 84.1601 462.439C84.7934 462.404 85.1454 462.435 85.1468 462.479Z" fill="#263238"/>
<path d="M117.036 514.371C117.012 514.372 116.96 514.089 116.882 513.549C116.803 512.935 116.701 512.151 116.577 511.181C116.332 509.033 115.993 506.076 115.581 502.461C114.799 495.012 113.733 484.871 112.557 473.667C112.167 469.772 111.788 466.007 111.438 462.512L111.771 462.812C103.223 462.763 95.8172 462.72 90.4465 462.688C87.8705 462.648 85.7865 462.616 84.2558 462.592C83.5878 462.569 83.0425 462.551 82.5998 462.536C82.2238 462.517 82.0278 462.499 82.0278 462.479C82.0278 462.457 82.2238 462.439 82.5998 462.42C83.0425 462.405 83.5878 462.388 84.2558 462.365C85.7865 462.341 87.8705 462.308 90.4465 462.268C95.8172 462.236 103.223 462.193 111.771 462.144L112.072 462.143L112.102 462.445C112.461 465.939 112.848 469.703 113.248 473.596C114.345 484.809 115.34 494.957 116.069 502.412C116.39 506.037 116.654 509.001 116.845 511.155C116.917 512.128 116.976 512.917 117.021 513.535C117.055 514.08 117.06 514.368 117.036 514.371Z" fill="#263238"/>
<path d="M117.035 514.369C117.042 514.393 116.695 514.52 116.029 514.741C115.298 514.975 114.325 515.285 113.102 515.675C110.555 516.463 106.862 517.591 102.25 518.821C97.6395 520.044 92.0942 521.365 85.8288 522.232C79.5568 523.201 72.4715 522.823 65.3408 521.261C61.7688 520.493 58.3368 519.501 55.0848 518.371C53.4622 517.793 51.8795 517.199 50.3502 516.561C49.5875 516.237 48.8275 515.943 48.0995 515.549L47.0062 514.999L45.9902 514.343C43.3075 512.584 41.2182 510.317 39.5595 508.037C37.8982 505.747 36.6395 503.431 35.5982 501.277C33.5568 496.943 32.3622 493.253 31.5662 490.709C31.1768 489.433 30.8848 488.439 30.7048 487.76C30.5222 487.081 30.4355 486.723 30.4595 486.716C30.4822 486.709 30.6128 487.055 30.8395 487.719C31.0848 488.445 31.4128 489.412 31.8235 490.625C32.6968 493.139 33.9595 496.791 36.0408 501.063C37.1008 503.183 38.3702 505.46 40.0235 507.696C41.6728 509.923 43.7315 512.12 46.3395 513.808L47.3262 514.437L48.3848 514.963C49.0808 515.337 49.8448 515.631 50.6022 515.948C52.1222 516.573 53.6968 517.16 55.3088 517.729C58.5395 518.841 61.9462 519.82 65.4875 520.583C72.5635 522.129 79.5342 522.521 85.7435 521.599C91.9755 520.772 97.5102 519.505 102.127 518.345C106.745 517.179 110.455 516.124 113.026 515.415C114.263 515.077 115.25 514.809 115.989 514.608C116.669 514.429 117.029 514.347 117.035 514.369Z" fill="#263238"/>
<path d="M94.4094 202.35C97.1507 196.167 95.3881 188.39 90.5121 183.702C85.6361 179.015 78.0641 177.516 71.6321 179.612C68.7561 180.551 66.0387 182.202 64.2641 184.654C60.9947 189.168 61.6321 195.81 65.0121 200.242C68.3921 204.674 74.0227 207.016 79.5881 207.324C85.1547 207.634 90.6787 206.106 95.8254 203.964" fill="#263238"/>
<path d="M138.749 413.82C148.074 421.515 170.02 439.727 170.02 439.727L182.308 437.539L145.082 406.223C143.082 404.54 140.12 404.704 138.317 406.596C136.338 408.675 136.536 411.993 138.749 413.82Z" fill="#455A64"/>
<path d="M137.764 409.82L132.93 405.459C131.986 404.605 131.888 403.156 132.708 402.183C133.573 401.157 135.118 401.059 136.108 401.964L140.757 406.224L137.764 409.82Z" fill="#455A64"/>
<path d="M152.146 412.165C152.285 412.297 150.945 413.94 149.151 415.833C147.358 417.728 145.791 419.156 145.651 419.025C145.513 418.893 146.853 417.249 148.646 415.356C150.439 413.462 152.007 412.033 152.146 412.165Z" fill="#263238"/>
<path d="M152.52 427.5C152.466 427.576 151.029 426.676 148.805 425.073C146.582 423.472 143.585 421.15 140.432 418.402C138.869 417.049 137.284 415.658 136.512 413.889C135.737 412.133 135.869 410.305 136.386 408.99C136.906 407.653 137.745 406.812 138.357 406.341C138.985 405.869 139.4 405.728 139.417 405.762C139.445 405.81 139.08 406.032 138.533 406.546C137.998 407.06 137.269 407.905 136.849 409.157C136.428 410.388 136.366 412.06 137.094 413.626C137.816 415.206 139.314 416.521 140.886 417.877C144.026 420.614 146.961 422.984 149.102 424.681C151.242 426.378 152.578 427.418 152.52 427.5Z" fill="#263238"/>
<path d="M112.192 466.634C121.033 463.663 130.428 465.663 139.269 462.694C142.235 461.698 145.287 460.652 147.624 458.574C150.433 456.079 151.861 452.414 154.101 449.398C160.793 440.384 173.296 438.518 184.463 437.374C187.071 437.106 189.741 436.843 192.281 437.486C194.823 438.126 197.251 439.866 197.964 442.387C198.677 444.91 197.049 448.056 194.441 448.319C196.888 448.427 198.601 450.911 199.051 453.319C199.499 455.726 199.1 458.219 199.424 460.647C199.879 464.058 201.744 467.25 201.636 470.688C201.488 475.395 197.585 479.272 193.24 481.083C188.892 482.895 184.083 483.13 179.419 483.786C156.525 487.007 139.109 500.007 117.036 509.828" fill="#FFBE9D"/>
<path d="M199.265 456.479C200.02 458.052 202.344 458.403 203.776 457.407C205.208 456.409 205.758 454.473 205.505 452.747C205.253 451.02 204.326 449.467 203.297 448.059C201.42 445.485 199.15 443.228 196.89 440.983L189.797 446.92L199.265 456.479Z" fill="#FFBE9D"/>
<path d="M196.651 448.726C196.638 448.945 192.306 448.589 187.061 449.402C181.807 450.176 177.774 451.794 177.698 451.589C177.665 451.509 178.63 451.001 180.286 450.396C181.938 449.788 184.293 449.12 186.957 448.714C189.622 448.314 192.067 448.257 193.826 448.35C195.586 448.44 196.659 448.641 196.651 448.726Z" fill="#EB996E"/>
<path d="M199.774 462.617C199.732 462.827 196.127 462.089 191.635 462.217C187.142 462.311 183.578 463.229 183.526 463.021C183.463 462.863 187.019 461.622 191.618 461.522C196.215 461.394 199.828 462.457 199.774 462.617Z" fill="#EB996E"/>
<path d="M199.021 458.51C198.911 458.498 199.019 457.467 198.827 455.841C198.631 454.226 198.047 451.991 196.679 449.918C196.395 449.474 196.079 449.066 195.769 448.682L195.568 448.434L195.791 448.215C197.267 446.766 197.68 444.817 197.633 443.526C197.601 442.201 197.235 441.438 197.337 441.399C197.384 441.363 197.916 442.078 198.081 443.495C198.255 444.87 197.915 447.039 196.269 448.705L196.291 448.239C196.624 448.641 196.961 449.07 197.26 449.538C198.705 451.73 199.241 454.113 199.316 455.798C199.387 457.502 199.099 458.526 199.021 458.51Z" fill="#EB996E"/>
<path d="M199.272 455.72L210.906 466.634L212.391 473.116L201.635 470.689C200.095 465.214 198.958 460 199.272 455.72Z" fill="#455A64"/>
<path d="M183.526 469.621C183.289 470.047 120.763 500.874 120.763 500.874V507.505L184.569 474.315L263.738 471.327V466.634L183.526 469.621Z" fill="#F5F5F5"/>
<path d="M120.764 508.459C121.201 508.161 189.797 501.977 189.797 501.977L263.737 471.327L184.569 474.317L120.764 507.505V508.459Z" fill="#263238"/>
<path d="M186.443 492.04C185.887 488.448 189.329 485.369 192.834 484.409C196.341 483.449 200.091 483.829 203.637 483.023C205.913 482.505 208.047 481.512 210.226 480.676C221.162 476.479 233.158 476.261 244.869 476.097C246.319 479.223 245.118 483.333 242.213 485.185C243.283 487.987 242.957 491.18 241.85 493.967C240.743 496.753 238.913 499.191 236.966 501.471C235.318 503.4 233.505 505.292 231.185 506.316C228.881 507.333 226.286 507.401 223.767 507.456C215.913 507.621 207.485 507.627 200.986 503.211C195.937 499.779 192.433 493.889 186.581 492.147C187.043 492.167 187.506 492.184 187.969 492.203" fill="#FFBE9D"/>
<path d="M238.845 487.683C238.845 487.731 238.311 487.779 237.341 487.826C236.224 487.862 234.853 487.906 233.239 487.956C229.775 488.038 224.989 488.099 219.704 488.126C217.068 488.127 214.556 488.127 212.244 488.128C211.089 488.106 209.955 487.988 208.949 487.623C207.943 487.255 207.105 486.638 206.565 485.887C206.019 485.147 205.812 484.254 205.943 483.527C206.06 482.798 206.408 482.242 206.771 481.884C207.54 481.164 208.204 481.282 208.176 481.3C208.203 481.374 207.591 481.37 206.967 482.071C206.357 482.718 205.885 484.278 206.959 485.595C207.455 486.235 208.225 486.771 209.139 487.08C210.063 487.391 211.124 487.484 212.255 487.488C214.561 487.471 217.068 487.451 219.7 487.432C224.985 487.406 229.772 487.42 233.237 487.466C234.852 487.5 236.223 487.531 237.34 487.555C238.309 487.592 238.845 487.635 238.845 487.683Z" fill="#EB996E"/>
<path d="M234.817 494.267C234.822 494.315 234.15 494.447 232.929 494.636C231.706 494.825 229.933 495.077 227.728 495.291C225.522 495.492 222.874 495.657 219.932 495.476C216.981 495.321 213.801 494.641 210.52 493.893C203.977 492.295 197.893 491.799 193.489 491.803C191.288 491.795 189.505 491.88 188.273 491.949C187.041 492.015 186.358 492.06 186.352 492.007C186.348 491.964 187.02 491.828 188.25 491.68C189.48 491.528 191.266 491.365 193.485 491.312C197.909 491.18 204.094 491.608 210.673 493.216C213.958 493.965 217.082 494.651 219.976 494.839C222.868 495.051 225.49 494.94 227.688 494.8C229.886 494.652 231.665 494.473 232.897 494.368C234.128 494.26 234.812 494.22 234.817 494.267Z" fill="#EB996E"/>
<path d="M228.288 501.307C228.292 501.355 227.768 501.449 226.816 501.581C225.864 501.707 224.484 501.877 222.771 502.023C219.357 502.299 214.543 502.603 209.329 501.589C204.065 500.584 199.972 497.903 196.833 496.655C193.696 495.301 191.552 495.16 191.568 495.037C191.569 495.004 192.109 494.972 193.068 495.116C194.025 495.253 195.399 495.583 197.016 496.199C200.273 497.365 204.352 499.94 209.465 500.908C214.564 501.9 219.328 501.684 222.737 501.533C224.331 501.445 225.684 501.373 226.791 501.312C227.751 501.264 228.284 501.26 228.288 501.307Z" fill="#EB996E"/>
<g opacity="0.199997">
<g opacity="0.199997">
<path opacity="0.199997" d="M210.554 465.516C211.217 460.664 212.264 455.804 214.45 451.423C216.638 447.043 220.062 443.148 224.521 441.122C228.978 439.098 234.518 439.182 238.533 441.983C239.742 442.824 240.822 443.934 241.328 445.318C241.833 446.702 241.665 448.387 240.654 449.46C239.181 451.023 236.693 450.774 234.545 450.68C224.752 450.252 214.972 456.146 210.774 465.003" fill="black"/>
</g>
</g>
<g opacity="0.199997">
<g opacity="0.199997">
<path opacity="0.199997" d="M94.7708 461.457C100.068 451.902 98.1895 439.915 94.1241 429.774C90.0588 419.634 83.9855 410.306 80.8815 399.831C80.2975 421.022 83.4015 442.309 90.0121 462.449" fill="black"/>
</g>
</g>
<path d="M104.162 315.227C104.162 315.227 110.628 330.471 133.955 329.501C157.283 328.533 158.039 310.43 158.039 310.43L173.646 327.023L158.821 357.583L138.904 372.449L111.77 361.299L89.4165 343.955L104.162 315.227Z" fill="#363499"/>
<g opacity="0.5">
<g opacity="0.5">
<path opacity="0.5" d="M49.5258 380.375C49.7658 380.675 46.7138 383.521 42.7098 386.735C38.7045 389.948 35.2645 392.308 35.0245 392.011C34.7845 391.711 37.8351 388.864 41.8405 385.651C45.8445 382.439 49.2858 380.076 49.5258 380.375Z" fill="#FAFAFA"/>
</g>
</g>
<path d="M60.4539 363.933C60.3339 364.28 56.6499 363.24 52.6646 360.782C48.6673 358.34 46.0726 355.525 46.3273 355.261C46.5953 354.962 49.5206 357.237 53.3913 359.598C57.2473 361.98 60.5979 363.56 60.4539 363.933Z" fill="#FAFAFA"/>
<path d="M80.4953 365.718C80.81 365.961 77.8633 370.245 74.5086 375.685C71.1366 381.116 68.6193 385.662 68.2606 385.489C67.926 385.333 69.9126 380.457 73.3286 374.953C76.7273 369.442 80.206 365.488 80.4953 365.718Z" fill="#FAFAFA"/>
<path d="M63.3723 412.05C63.099 412.293 60.0216 409.156 57.3283 404.493C54.6136 399.841 53.4163 395.613 53.7616 395.496C54.139 395.356 55.883 399.265 58.5296 403.797C61.151 408.34 63.6816 411.794 63.3723 412.05Z" fill="#FAFAFA"/>
<path d="M45.4802 434.472C45.1002 434.523 44.3242 431.13 43.7482 426.894C43.1708 422.656 43.0108 419.179 43.3908 419.127C43.7708 419.075 44.5468 422.468 45.1242 426.707C45.7015 430.944 45.8602 434.42 45.4802 434.472Z" fill="#FAFAFA"/>
<g opacity="0.5">
<g opacity="0.5">
<path opacity="0.5" d="M62.3307 440.579C61.9987 440.386 63.712 436.814 66.1574 432.599C68.6027 428.384 70.8534 425.123 71.1854 425.316C71.5174 425.507 69.804 429.08 67.3587 433.296C64.9134 437.51 62.6627 440.772 62.3307 440.579Z" fill="#FAFAFA"/>
</g>
</g>
<path d="M42.7547 463.794C42.4774 464.043 39.5041 461.128 36.6187 456.91C33.7201 452.699 32.0721 448.876 32.4027 448.707C32.7534 448.522 34.9174 451.99 37.7641 456.124C40.5961 460.266 43.0534 463.535 42.7547 463.794Z" fill="#FAFAFA"/>
<path d="M69.3532 459.964C69.6266 460.234 66.5652 463.766 62.5186 467.848C58.4692 471.935 54.9679 475.027 54.6946 474.758C54.4226 474.487 57.4826 470.956 61.5319 466.872C65.5786 462.787 69.0812 459.694 69.3532 459.964Z" fill="#FAFAFA"/>
<g opacity="0.5">
<g opacity="0.5">
<path opacity="0.5" d="M54.2342 507.876C53.9822 508.143 51.0315 505.679 48.3395 501.819C45.6302 497.969 44.3222 494.355 44.6582 494.209C45.0209 494.039 46.8475 497.291 49.4769 501.021C52.0849 504.765 54.5169 507.593 54.2342 507.876Z" fill="#FAFAFA"/>
</g>
</g>
<path d="M88.5564 498.177C88.747 498.51 85.4684 500.738 81.2364 503.15C77.0017 505.566 73.4177 507.253 73.227 506.919C73.0377 506.586 76.3137 504.359 80.5484 501.945C84.7804 499.531 88.3657 497.843 88.5564 498.177Z" fill="#FAFAFA"/>
<path d="M101.935 487.135C101.699 487.412 98.5799 485.039 95.7639 481.163C92.9279 477.299 91.6159 473.606 91.9532 473.466C92.3172 473.295 94.1439 476.612 96.8852 480.343C99.6026 484.09 102.208 486.839 101.935 487.135Z" fill="#FAFAFA"/>
<path d="M125.525 410.352C125.754 410.659 122.224 413.691 117.641 417.123C113.056 420.556 109.153 423.09 108.924 422.782C108.693 422.476 112.222 419.444 116.808 416.011C121.392 412.58 125.296 410.047 125.525 410.352Z" fill="#FAFAFA"/>
<path d="M100.661 408.748C100.28 408.71 100.341 405.055 100.8 400.59C101.257 396.122 101.939 392.534 102.32 392.572C102.701 392.611 102.639 396.264 102.181 400.731C101.723 405.198 101.043 408.787 100.661 408.748Z" fill="#FAFAFA"/>
<g opacity="0.5">
<g opacity="0.5">
<path opacity="0.5" d="M123.588 377.511C123.375 377.817 119.243 375.273 114.707 371.395C110.161 367.527 106.999 363.849 107.267 363.59C107.548 363.314 111.116 366.517 115.609 370.339C120.089 374.171 123.816 377.191 123.588 377.511Z" fill="#FAFAFA"/>
</g>
</g>
<path d="M106.374 338.556C106.666 338.804 103.75 342.722 99.8611 347.306C95.9704 351.893 92.5797 355.409 92.2877 355.161C91.9957 354.913 94.9117 350.994 98.8024 346.409C102.69 341.824 106.082 338.306 106.374 338.556Z" fill="#FAFAFA"/>
<g opacity="0.5">
<g opacity="0.5">
<path opacity="0.5" d="M86.65 334.382C86.4393 334.725 83.4593 333.192 79.5886 331.894C75.7246 330.57 72.4273 329.974 72.4686 329.574C72.4886 329.21 75.9913 329.196 80.034 330.578C84.0833 331.94 86.8553 334.081 86.65 334.382Z" fill="#FAFAFA"/>
</g>
</g>
<path d="M136.774 352.342C136.406 352.234 137.037 348.989 138.181 345.094C139.326 341.201 140.553 338.131 140.921 338.239C141.289 338.347 140.66 341.591 139.514 345.486C138.369 349.381 137.142 352.45 136.774 352.342Z" fill="#FAFAFA"/>
<path d="M148.754 383.032C148.372 383.01 148.242 379.835 148.466 375.94C148.69 372.046 149.182 368.906 149.565 368.928C149.949 368.95 150.077 372.124 149.853 376.02C149.629 379.914 149.137 383.054 148.754 383.032Z" fill="#FAFAFA"/>
<path d="M168.453 406.06C168.213 406.36 165.294 404.412 161.934 401.71C158.573 399.009 156.045 396.578 156.285 396.278C156.525 395.978 159.443 397.926 162.805 400.629C166.163 403.329 168.693 405.761 168.453 406.06Z" fill="#FAFAFA"/>
<path d="M189.44 373.903C189.694 374.191 187.09 376.903 183.623 379.962C180.156 383.021 177.14 385.266 176.887 384.979C176.634 384.691 179.238 381.979 182.704 378.921C186.17 375.862 189.187 373.615 189.44 373.903Z" fill="#FAFAFA"/>
<g opacity="0.5">
<g opacity="0.5">
<path opacity="0.5" d="M179.794 358.724C179.59 359.037 176.291 357.23 172.742 354.278C169.183 351.336 166.797 348.429 167.067 348.172C167.349 347.896 170.134 350.321 173.629 353.209C177.113 356.108 180.011 358.397 179.794 358.724Z" fill="#FAFAFA"/>
</g>
</g>
<path d="M204.042 331.661C204.346 331.872 202.73 334.633 199.876 337.301C197.034 339.985 194.18 341.426 193.987 341.11C193.772 340.777 196.191 338.873 198.926 336.29C201.672 333.722 203.723 331.425 204.042 331.661Z" fill="#FAFAFA"/>
<g opacity="0.5">
<g opacity="0.5">
<path opacity="0.5" d="M187.368 329.126C187.317 329.495 183.06 329.193 177.979 327.899C172.891 326.621 169.001 324.865 169.132 324.515C169.267 324.145 173.309 325.294 178.317 326.553C183.321 327.826 187.427 328.737 187.368 329.126Z" fill="#FAFAFA"/>
</g>
</g>
<g opacity="0.5">
<g opacity="0.5">
<path opacity="0.5" d="M218.337 372.216C217.973 372.137 218.803 366.928 220.706 360.724C222.595 354.514 224.817 349.73 225.163 349.869C225.531 350.013 223.906 354.978 222.034 361.13C220.149 367.276 218.721 372.301 218.337 372.216Z" fill="#FAFAFA"/>
</g>
</g>
<path d="M225.195 401.625C224.916 401.889 221.624 398.854 217.843 394.847C214.06 390.839 211.22 387.377 211.5 387.114C211.778 386.851 215.07 389.886 218.852 393.894C222.634 397.901 225.474 401.362 225.195 401.625Z" fill="#FAFAFA"/>
<g opacity="0.5">
<g opacity="0.5">
<path opacity="0.5" d="M235.821 418.29C235.437 418.282 235.201 413.913 235.293 408.53C235.385 403.146 235.771 398.786 236.155 398.793C236.537 398.799 236.773 403.169 236.683 408.553C236.591 413.937 236.205 418.297 235.821 418.29Z" fill="#FAFAFA"/>
</g>
</g>
<path d="M225.035 445.722C224.735 445.94 221.874 442.444 219.239 437.562C216.59 432.686 215.226 428.38 215.571 428.249C215.939 428.1 217.854 432.108 220.46 436.901C223.05 441.7 225.36 445.494 225.035 445.722Z" fill="#FAFAFA"/>
<path d="M252.578 450.731C252.846 451.006 250.997 453.247 248.447 455.737C245.898 458.226 243.614 460.022 243.346 459.747C243.078 459.474 244.927 457.233 247.477 454.743C250.026 452.254 252.31 450.458 252.578 450.731Z" fill="#FAFAFA"/>
<g opacity="0.5">
<g opacity="0.5">
<path opacity="0.5" d="M185.53 419.463C185.189 419.359 186.414 414.986 189.574 410.435C192.707 405.864 196.362 403.167 196.581 403.45C196.854 403.755 193.731 406.819 190.717 411.223C187.669 415.603 185.913 419.611 185.53 419.463Z" fill="#FAFAFA"/>
</g>
</g>
<path d="M107.779 456.048C107.407 455.957 108.063 451.989 109.246 447.188C110.427 442.385 111.687 438.568 112.059 438.66C112.432 438.75 111.776 442.717 110.594 447.52C109.412 452.321 108.151 456.138 107.779 456.048Z" fill="#FAFAFA"/>
<path d="M140.531 459.307C140.321 459.628 137.001 457.835 133.116 455.302C129.229 452.768 126.251 450.455 126.46 450.134C126.669 449.812 129.988 451.606 133.875 454.139C137.76 456.671 140.74 458.986 140.531 459.307Z" fill="#FAFAFA"/>
<path d="M138.888 435.681C138.569 435.894 137.008 434.118 135.402 431.714C133.796 429.311 132.752 427.19 133.072 426.977C133.389 426.765 134.95 428.539 136.557 430.942C138.162 433.346 139.206 435.467 138.888 435.681Z" fill="#FAFAFA"/>
<path d="M153.331 441.065C153.552 441.378 152.148 442.743 150.199 444.113C148.247 445.482 146.488 446.338 146.268 446.025C146.047 445.71 147.449 444.346 149.4 442.977C151.351 441.606 153.111 440.751 153.331 441.065Z" fill="#FAFAFA"/>
<g opacity="0.5">
<g opacity="0.5">
<path opacity="0.5" d="M115.622 536.921C115.244 536.807 115.86 533.78 116.408 530.043C116.974 526.305 117.267 523.231 117.662 523.231C118.034 523.225 118.363 526.392 117.782 530.247C117.214 534.103 115.975 537.037 115.622 536.921Z" fill="#FAFAFA"/>
</g>
</g>
<g opacity="0.5">
<g opacity="0.5">
<path opacity="0.5" d="M148.85 526.104C148.517 526.294 145.986 522.473 143.196 517.572C140.406 512.669 138.416 508.541 138.749 508.353C139.082 508.162 141.613 511.982 144.404 516.885C147.193 521.786 149.184 525.914 148.85 526.104Z" fill="#FAFAFA"/>
</g>
</g>
<g opacity="0.5">
<g opacity="0.5">
<path opacity="0.5" d="M184.097 511.237C184.402 511.47 181.061 516.35 176.635 522.134C172.209 527.922 168.375 532.422 168.07 532.189C167.766 531.955 171.106 527.078 175.533 521.29C179.958 515.506 183.793 511.003 184.097 511.237Z" fill="#FAFAFA"/>
</g>
</g>
<g opacity="0.5">
<g opacity="0.5">
<path opacity="0.5" d="M194.027 539.545C194.083 539.925 189.668 540.877 184.171 541.673C178.671 542.468 174.168 542.805 174.114 542.425C174.059 542.046 178.471 541.093 183.971 540.298C189.47 539.504 193.972 539.166 194.027 539.545Z" fill="#FAFAFA"/>
</g>
</g>
<path d="M195.555 525.282C195.168 525.196 195.516 522.35 195.659 518.856C195.82 515.361 195.721 512.497 196.113 512.444C196.479 512.384 197.212 515.276 197.047 518.917C196.895 522.556 195.913 525.373 195.555 525.282Z" fill="#FAFAFA"/>
<path d="M147.966 541.897C147.833 542.237 144.229 541.038 140.47 538.322C136.696 535.625 134.413 532.591 134.693 532.357C134.989 532.085 137.645 534.598 141.281 537.195C144.9 539.814 148.13 541.53 147.966 541.897Z" fill="#FAFAFA"/>
<path d="M91.4209 539.789C91.0489 539.695 91.4942 536.65 92.4169 532.986C93.3382 529.321 94.3875 526.427 94.7595 526.522C95.1315 526.614 94.6849 529.659 93.7635 533.325C92.8409 536.987 91.7929 539.882 91.4209 539.789Z" fill="#FAFAFA"/>
<path d="M85.2762 202.54C85.3629 202.431 86.8775 203.735 89.6682 205.267C91.0562 206.045 92.7949 206.809 94.7762 207.496C96.7735 208.143 99.0229 208.688 101.428 208.981C103.838 209.243 106.152 209.223 108.244 209.047C110.331 208.828 112.198 208.479 113.726 208.036C116.792 207.179 118.563 206.253 118.623 206.379C118.644 206.423 118.214 206.669 117.411 207.083C117.012 207.296 116.516 207.54 115.915 207.763C115.316 207.993 114.647 208.296 113.866 208.507C112.33 209.017 110.436 209.425 108.31 209.683C106.178 209.899 103.811 209.937 101.348 209.671C98.8895 209.372 96.5949 208.795 94.5682 208.101C92.5562 207.367 90.8055 206.54 89.4255 205.693C88.7122 205.311 88.1295 204.864 87.5989 204.503C87.0629 204.149 86.6362 203.8 86.2962 203.501C85.6082 202.916 85.2455 202.577 85.2762 202.54Z" fill="#455A64"/>
<path d="M119.723 217.877C119.733 217.923 119.218 218.087 118.27 218.327C117.323 218.568 115.943 218.88 114.219 219.181C110.793 219.765 105.869 220.347 100.561 219.261C95.2445 218.16 90.9952 215.263 88.7592 212.535C87.6245 211.177 86.9072 209.924 86.5245 209.017C86.1352 208.113 86.0019 207.584 86.0365 207.572C86.1792 207.499 86.8099 209.643 89.1285 212.211C91.3925 214.777 95.5419 217.512 100.702 218.581C105.871 219.64 110.721 219.153 114.143 218.696C115.865 218.459 117.254 218.221 118.215 218.063C119.177 217.904 119.713 217.829 119.723 217.877Z" fill="#455A64"/>
<path d="M72.2444 299.479C72.235 299.487 72.1764 299.424 72.0684 299.295C71.967 299.163 71.795 298.976 71.615 298.7C71.2617 298.149 70.8004 297.268 70.5524 296.031C70.027 293.6 70.5737 289.633 73.483 286.125C74.9297 284.399 76.8684 282.848 79.0604 281.421C81.2457 279.977 83.7057 278.652 86.1137 277.028C88.4977 275.397 90.9044 273.419 92.5377 270.756C93.347 269.431 93.923 267.935 94.1337 266.349C94.3577 264.765 94.2337 263.119 93.8777 261.5C93.1497 258.248 91.6897 255.267 90.5004 252.304C89.2764 249.363 88.3204 246.319 88.247 243.328C88.003 237.331 90.239 232.148 92.8204 228.549C95.4297 224.887 98.483 222.752 100.684 221.617C101.238 221.352 101.735 221.115 102.178 220.901C102.612 220.749 102.994 220.616 103.323 220.501C103.943 220.291 104.271 220.193 104.278 220.216C104.284 220.239 103.971 220.381 103.371 220.632C103.051 220.764 102.683 220.916 102.262 221.091C101.831 221.317 101.35 221.572 100.812 221.855C98.679 223.048 95.727 225.207 93.2204 228.833C90.7404 232.396 88.6124 237.484 88.8857 243.3C88.9764 246.199 89.9057 249.12 91.131 252.047C92.3177 254.985 93.799 257.983 94.555 261.352C94.9244 263.029 95.0577 264.764 94.819 266.445C94.5924 268.125 93.9724 269.723 93.119 271.109C91.391 273.903 88.903 275.915 86.471 277.559C84.011 279.195 81.5497 280.496 79.3737 281.904C77.1924 283.295 75.2844 284.788 73.8564 286.447C71.003 289.785 70.387 293.617 70.819 295.983C71.2484 298.413 72.351 299.432 72.2444 299.479Z" fill="#455A64"/>
<path d="M107.757 299.964C107.745 299.986 107.482 299.836 106.985 299.53C106.528 299.18 105.833 298.626 105.265 297.658C104.68 296.71 104.212 295.39 104.065 293.815C103.92 292.239 104.097 290.422 104.646 288.514C105.729 284.599 109.001 281.038 111.457 276.566C112.677 274.328 113.549 271.738 113.461 268.97C113.414 266.211 112.577 263.402 111.32 260.739C108.786 255.378 104.893 251.116 102.204 246.655C100.842 244.435 99.7289 242.19 99.0582 239.952C98.3462 237.719 98.2169 235.495 98.4035 233.524C98.7782 229.538 100.618 226.626 102.286 225.187C103.14 224.474 103.892 224.042 104.424 223.814C104.964 223.596 105.249 223.495 105.257 223.518C105.306 223.607 104.076 223.93 102.468 225.386C100.904 226.846 99.1955 229.694 98.8929 233.568C98.7435 235.488 98.8955 237.627 99.6075 239.782C100.285 241.951 101.392 244.138 102.748 246.318C104.11 248.498 105.726 250.675 107.369 252.967C109.016 255.251 110.662 257.708 111.948 260.443C113.233 263.166 114.101 266.071 114.141 268.959C114.226 271.858 113.285 274.595 112.02 276.871C109.468 281.422 106.204 284.912 105.117 288.656C104.554 290.498 104.346 292.26 104.452 293.783C104.558 295.31 104.97 296.588 105.498 297.519C106.574 299.418 107.849 299.87 107.757 299.964Z" fill="#455A64"/>
<path d="M160.376 199.871C160.364 199.893 160.192 199.819 159.872 199.659C159.555 199.494 159.1 199.223 158.552 198.818C157.459 198.01 156.027 196.599 154.717 194.541C153.377 192.499 152.237 189.822 151.025 186.885C150.412 185.418 149.757 183.887 148.952 182.373C148.111 180.883 147.184 179.365 146.008 177.977C141.393 172.287 135.181 169.233 130.597 168.043C125.952 166.831 122.92 167.107 122.929 166.946C122.928 166.901 123.672 166.846 125.028 166.827C126.377 166.883 128.353 166.987 130.719 167.567C133.075 168.147 135.84 169.121 138.613 170.766C141.375 172.409 144.219 174.622 146.547 177.538C147.751 178.961 148.7 180.523 149.552 182.055C150.368 183.607 151.017 185.163 151.617 186.641C152.8 189.602 153.875 192.249 155.133 194.281C156.363 196.329 157.7 197.75 158.72 198.607C159.744 199.465 160.408 199.815 160.376 199.871Z" fill="#455A64"/>
<path d="M178.972 199.762C178.968 199.786 178.722 199.759 178.254 199.686C177.785 199.626 177.104 199.459 176.252 199.167C174.552 198.589 172.194 197.311 169.896 195.037C167.572 192.798 165.33 189.633 163.3 185.923C161.212 182.259 159.185 178.043 156.05 174.375C152.946 170.665 148.732 168.454 144.736 167.318C140.71 166.174 136.897 165.941 133.728 165.849C130.548 165.779 127.968 165.913 126.185 165.982C125.358 166.013 124.68 166.039 124.132 166.059C123.661 166.071 123.413 166.067 123.412 166.042C123.41 166.018 123.654 165.978 124.121 165.921C124.588 165.865 125.277 165.786 126.168 165.711C127.946 165.559 130.529 165.351 133.733 165.358C136.928 165.389 140.786 165.567 144.91 166.703C148.997 167.821 153.382 170.099 156.576 173.922C159.793 177.691 161.808 181.949 163.858 185.611C165.848 189.318 168.005 192.446 170.242 194.689C172.452 196.961 174.708 198.267 176.348 198.914C177.994 199.563 178.988 199.685 178.972 199.762Z" fill="#455A64"/>
<path d="M210.457 286.302C210.379 286.272 210.798 285.355 211.241 283.608C211.682 281.874 212.185 279.288 212.042 276.079C211.929 272.888 211.167 269.055 209.207 265.303C208.239 263.427 206.946 261.618 205.397 259.91C203.853 258.194 202.086 256.564 200.299 254.858C198.513 253.152 196.786 251.43 195.358 249.554C193.919 247.692 192.743 245.74 191.802 243.798C190.853 241.858 190.149 239.922 189.653 238.07C189.139 236.222 188.818 234.459 188.65 232.839C188.291 229.598 188.475 226.948 188.726 225.152C188.83 224.25 188.99 223.562 189.093 223.096C189.197 222.63 189.262 222.387 189.286 222.392C189.357 222.406 189.151 223.388 188.994 225.183C188.829 226.974 188.722 229.592 189.138 232.78C189.333 234.374 189.678 236.104 190.206 237.914C190.718 239.728 191.43 241.622 192.377 243.518C193.317 245.414 194.479 247.32 195.895 249.136C197.297 250.964 198.997 252.655 200.779 254.356C202.559 256.058 204.337 257.702 205.902 259.454C207.473 261.198 208.799 263.076 209.777 265.01C211.757 268.879 212.479 272.811 212.533 276.064C212.614 279.336 212.027 281.95 211.501 283.683C211.233 284.552 210.982 285.214 210.778 285.647C210.589 286.086 210.479 286.311 210.457 286.302Z" fill="#455A64"/>
<path d="M64.3925 198.707C64.3538 198.701 64.3792 198.231 64.5618 197.4C64.7405 196.569 65.1365 195.388 65.8712 194.045C67.2858 191.389 70.4685 188.052 75.1152 186.917C79.7738 185.825 84.1218 187.363 86.5858 189.092C87.8485 189.956 88.7365 190.829 89.2712 191.489C89.8085 192.148 90.0445 192.556 90.0138 192.579C89.9045 192.68 88.8432 191.079 86.3192 189.504C83.8658 187.933 79.6885 186.557 75.2765 187.593C70.8752 188.667 67.7725 191.783 66.2965 194.292C64.7578 196.84 64.5352 198.748 64.3925 198.707Z" fill="#455A64"/>
<path d="M77.3121 204.321C77.2281 204.305 77.3161 203.146 77.6841 201.294C78.0747 199.486 78.7494 196.79 80.8361 194.61C83.0107 192.426 86.0867 192.157 87.9027 192.821C88.8281 193.158 89.4707 193.678 89.7921 194.114C90.1267 194.542 90.2294 194.826 90.1987 194.843C90.0907 194.953 89.5094 193.793 87.7547 193.289C86.0774 192.795 83.2681 193.139 81.3321 195.095C79.4067 197.095 78.6654 199.647 78.1614 201.409C77.6761 203.206 77.4161 204.342 77.3121 204.321Z" fill="#455A64"/>
<path d="M94.2473 184.79C94.4273 184.915 92.2019 187.841 90.7459 192.053C89.2473 196.253 89.1553 199.926 88.9353 199.911C88.7726 199.938 88.5486 196.154 90.0899 191.822C91.5953 187.481 94.1366 184.666 94.2473 184.79Z" fill="#363499"/>
<path d="M307.556 217.293C307.556 219.585 309.414 221.443 311.705 221.443C313.997 221.443 315.856 219.585 315.856 217.293C315.856 215.001 313.997 213.144 311.705 213.144C309.414 213.144 307.556 215.001 307.556 217.293Z" fill="#455A64"/>
<path d="M290.949 217.293C290.949 219.585 292.808 221.443 295.099 221.443C297.392 221.443 299.249 219.585 299.249 217.293C299.249 215.001 297.392 213.144 295.099 213.144C292.808 213.144 290.949 215.001 290.949 217.293Z" fill="#455A64"/>
<path d="M274.385 215.218C273.24 217.204 273.919 219.741 275.904 220.886C277.889 222.033 280.427 221.353 281.573 219.368C282.719 217.384 282.039 214.845 280.055 213.7C278.069 212.553 275.531 213.233 274.385 215.218Z" fill="#455A64"/>
<path d="M294.842 168.824C294.842 168.806 294.558 168.8 294.002 168.811C293.394 168.827 292.578 168.851 291.537 168.88C290.996 168.906 290.386 168.906 289.72 168.962C289.052 169.055 288.326 169.156 287.544 169.267C286.756 169.38 285.909 169.502 285.006 169.631C284.116 169.852 283.17 170.086 282.17 170.334C278.186 171.359 273.358 173.11 268.425 176.327C263.493 179.492 258.368 184.02 254.208 190.172C250.126 196.332 246.978 204.083 246.144 212.787C246.062 214.966 245.8 217.182 246.01 219.434C246.088 220.558 246.065 221.7 246.23 222.834C246.4 223.966 246.572 225.107 246.745 226.258C247.673 230.798 249.025 235.451 251.365 239.783C253.65 244.127 256.598 248.259 260.2 251.94C263.87 255.546 268.157 258.674 272.928 261.084C277.685 263.515 282.956 265.192 288.442 265.846C289.802 266.115 291.193 266.114 292.581 266.198C293.97 266.29 295.364 266.34 296.764 266.274C299.562 266.16 302.37 265.81 305.144 265.215C311.169 263.934 316.842 261.479 321.824 258.196L321.317 258.247C327.098 260.568 332.772 262.844 338.309 265.067L339.314 265.471L339.028 264.426C337.314 258.191 335.646 252.127 334.033 246.262L333.946 246.71C338.714 240.374 341.756 233.138 343.014 225.954C343.646 222.364 343.913 218.782 343.674 215.319C343.6 213.584 343.517 211.874 343.193 210.212C343.062 209.378 342.933 208.548 342.806 207.726C342.654 206.908 342.406 206.118 342.212 205.32C338.929 192.535 331.054 183.091 323.256 177.686C319.352 174.935 315.501 172.963 311.974 171.734C311.094 171.419 310.249 171.116 309.433 170.824C308.596 170.611 307.792 170.407 307.021 170.212C306.252 170.02 305.516 169.839 304.814 169.664C304.105 169.528 303.422 169.456 302.782 169.358C301.497 169.195 300.37 168.972 299.38 168.924C298.406 168.891 297.576 168.863 296.882 168.84C296.252 168.826 295.749 168.815 295.358 168.806C295.016 168.803 294.842 168.81 294.842 168.824C294.842 168.839 295.016 168.863 295.358 168.895C295.746 168.926 296.246 168.964 296.876 169.015C297.564 169.062 298.389 169.116 299.357 169.183C300.337 169.259 301.456 169.507 302.726 169.695C307.728 170.611 315.224 172.606 322.882 178.206C330.53 183.612 338.204 192.966 341.362 205.535C341.548 206.319 341.789 207.096 341.933 207.9C342.054 208.708 342.177 209.522 342.301 210.342C342.613 211.974 342.686 213.654 342.75 215.356C342.972 218.754 342.693 222.267 342.061 225.782C340.802 232.818 337.804 239.892 333.118 246.086L332.966 246.29L333.033 246.535C334.634 252.404 336.289 258.471 337.99 264.71L338.709 264.07C333.176 261.842 327.505 259.558 321.726 257.231L321.46 257.124L321.218 257.282C316.345 260.488 310.8 262.884 304.912 264.138C302.201 264.718 299.457 265.062 296.721 265.174C295.352 265.239 293.988 265.188 292.632 265.1C291.274 265.019 289.913 265.023 288.585 264.759C283.22 264.124 278.066 262.49 273.412 260.119C268.744 257.768 264.544 254.715 260.944 251.195C257.413 247.6 254.518 243.562 252.266 239.316C249.961 235.08 248.626 230.528 247.698 226.08C247.525 224.955 247.352 223.836 247.18 222.727C247.014 221.616 247.034 220.495 246.952 219.394C246.734 217.184 246.985 215.01 247.054 212.871C247.834 204.326 250.882 196.696 254.857 190.606C258.908 184.524 263.921 180.019 268.76 176.846C273.598 173.619 278.35 171.827 282.282 170.748C283.269 170.486 284.204 170.236 285.082 170.003C285.976 169.855 286.813 169.719 287.593 169.591C288.369 169.463 289.088 169.344 289.749 169.235C290.41 169.162 291.014 169.144 291.552 169.102C292.588 169.026 293.4 168.967 294.005 168.923C294.558 168.876 294.842 168.844 294.842 168.824Z" fill="#455A64"/>
</g>
<defs>
<clipPath id="clip0_16_459">
<rect width="564.159" height="550.463" fill="white"/>
</clipPath>
</defs>
</svg>
