<svg width="18" height="14" viewBox="0 0 18 14" fill="none" xmlns="http://www.w3.org/2000/svg">
<path d="M4.60611 3.28144C6.2622 1.62642 9.0144 1.62642 10.6705 3.28144C12.1598 4.77003 12.3802 7.14285 11.156 8.85474L11.1232 8.90237C10.8164 9.32811 10.2207 9.42934 9.79478 9.12269C9.36587 8.81603 9.2646 8.2206 9.57139 7.79486L9.60415 7.74722C10.2862 6.79155 10.179 5.48456 9.348 4.65392C8.41273 3.71908 6.89068 3.71908 5.95243 4.65392L2.61047 7.99731C1.67192 8.90833 1.67192 10.4535 2.61047 11.3913C3.43851 12.2219 4.74909 12.3291 5.70223 11.6473L5.74988 11.5878C6.1788 11.3079 6.77451 11.4062 7.07833 11.8349C7.38512 12.2636 7.28683 12.8591 6.85791 13.1657L6.81026 13.1985C5.07077 14.4221 2.75046 14.2256 1.26148 12.74C-0.420492 11.0579 -0.420492 8.33075 1.26148 6.65162L4.60611 3.28144ZM13.3929 10.6917C11.71 12.3738 8.98461 12.3738 7.30172 10.6917C5.81243 9.20307 5.61883 6.85704 6.84302 5.14516L6.87578 5.09752C7.15577 4.67178 7.75148 4.57056 8.20423 4.87721C8.63314 5.15707 8.73441 5.7525 8.42762 6.20504L8.39486 6.25267C7.71276 7.18156 7.81999 8.51534 8.65101 9.34598C9.58628 10.2808 11.1083 10.2808 12.0466 9.34598L15.3885 6.00259C16.3268 5.06477 16.3268 3.51961 15.3885 2.60859C14.5605 1.77885 13.2499 1.67048 12.2968 2.35255L12.2491 2.3853C11.8202 2.69195 11.2245 2.56691 10.9207 2.16439C10.6139 1.73627 10.7122 1.14113 11.1411 0.835375L11.1888 0.80203C12.9014 -0.421268 15.2485 -0.227185 16.7378 1.26111C18.4207 2.94204 18.4207 5.66914 16.7378 7.34828L13.3929 10.6917Z" fill="#7A7A7A"/>
</svg>
